<svg width="32" height="32" viewBox="0 0 32 32" fill="none" xmlns="http://www.w3.org/2000/svg">
<path d="M29.7773 0.429452L19.7886 15.406L30.5343 29.366L15.807 19.6987L1.62255 30.7835L11.6112 15.807L0.865517 1.84696L15.5928 11.5142L29.7773 0.429452Z" fill="url(#paint0_radial_221_216)"/>
<path d="M20.952 8.34995C21.2611 8.22281 20.378 8.8379 21.0232 8.50466C20.9116 8.60344 20.7994 8.70303 20.6878 8.80182C20.6273 8.78575 20.5662 8.77035 20.5058 8.75428C20.6541 8.61967 20.8026 8.48499 20.9518 8.34976C20.9519 8.34982 20.9519 8.34988 20.952 8.34995ZM20.7823 7.6897C20.7256 7.91457 20.2905 8.30272 20.8666 8.01915C20.8759 7.94992 20.8862 7.87994 20.8955 7.8107C21.0907 7.70617 21.287 7.60081 21.4822 7.49612C21.5325 7.43313 21.5828 7.37018 21.6333 7.30735C21.7643 7.31267 21.8948 7.31872 22.0259 7.32421C21.9483 7.36906 21.8697 7.41448 21.7921 7.45933C21.5581 7.72963 21.3238 7.93668 20.9564 8.24003C21.0018 8.2301 21.047 8.21997 21.0923 8.21005C20.8809 8.33196 20.6695 8.45374 20.4588 8.57502C20.6028 8.4199 20.764 8.24663 20.8974 8.10273C20.5713 8.18878 20.186 8.58379 19.9789 8.7809C19.6968 9.04938 19.7269 8.9456 19.5166 9.14353C19.483 9.17505 19.5094 9.21733 19.4384 9.27387C19.08 9.55895 18.3631 10.0859 18.7017 9.67445C19.3047 9.22209 19.754 8.75307 20.3575 8.32451C20.121 8.33954 20.3999 8.0638 20.7823 7.6897ZM9.07111 7.96046C9.29771 8.03148 9.6722 8.30866 9.91091 8.51931C9.91121 8.51951 9.91151 8.51971 9.91182 8.51991C9.96434 8.56627 10.0483 8.72465 9.86091 8.59746C9.55565 8.38987 9.48104 8.1783 9.26843 8.14912C9.20539 8.08719 9.13767 8.02445 9.07111 7.96046ZM8.39606 7.52698C8.22507 7.37488 8.36713 7.34561 8.58892 7.52436C8.58897 7.52429 8.58901 7.52422 8.58905 7.52415C8.6816 7.59877 8.44301 7.53899 8.8428 7.70313C8.88016 7.80412 8.91958 7.89957 8.95722 7.99827C8.8698 7.94213 8.78967 7.89154 8.69811 7.83243C8.81708 7.78482 8.56715 7.67884 8.39606 7.52698ZM18.4358 9.95564C18.4659 10.0521 18.5831 9.95977 18.8235 9.85511C18.6328 10.0002 18.4419 10.1452 18.252 10.2897C18.3135 10.1781 18.3743 10.0673 18.4358 9.95564ZM22.881 6.50042C22.8813 6.5002 22.8816 6.49998 22.8818 6.49975C22.9345 6.43966 22.9874 6.37938 23.0394 6.32007C23.0971 6.31777 23.1544 6.31567 23.2121 6.31337C23.4112 6.1176 23.6115 5.92091 23.8104 5.72498C23.8473 5.82694 23.4446 6.12035 23.2728 6.34602C22.9323 6.57274 22.7406 6.64664 22.6659 6.59414C22.7373 6.56301 22.8088 6.53218 22.881 6.50042ZM5.20961 27.8201C5.26513 27.7404 5.31972 27.6615 5.37525 27.5819C5.27002 27.6476 5.16747 27.7151 5.06016 27.7798C4.88029 28.0779 4.78858 28.0102 4.45745 28.2787C3.44257 29.1017 3.83444 29.0402 2.7308 29.5442C3.4855 28.9715 3.11692 29.091 3.50397 28.6588C3.64511 28.6473 3.30727 29.1341 3.63187 28.9266C4.10182 28.4548 4.55526 28.0031 5.10022 27.5097C5.07507 27.5123 5.04996 27.5148 5.02481 27.5174C4.93842 27.5957 4.85283 27.6734 4.76644 27.7517C4.84311 27.6461 4.91774 27.5424 4.99576 27.4352C4.91914 27.5988 5.21459 27.31 5.22912 27.4178C5.23558 27.4659 5.1283 27.6233 5.06851 27.7207C5.29963 27.5677 5.53521 27.4089 5.76835 27.2535C5.67479 27.3688 5.58136 27.4842 5.4886 27.5989C5.39607 27.6726 5.30407 27.7454 5.21154 27.819C5.2109 27.8194 5.21025 27.8197 5.20961 27.8201ZM25.3666 6.03173C25.2528 6.3776 24.9125 6.91694 24.6362 7.13603C24.8799 6.76772 25.1229 6.40005 25.3666 6.03173ZM22.6006 6.5538C22.6421 6.54237 22.6825 6.53156 22.7239 6.52013C22.6046 6.65226 22.4843 6.78485 22.365 6.91698C22.3091 6.90004 22.2525 6.88356 22.1959 6.86741C22.3304 6.76305 22.466 6.65815 22.6006 6.5538ZM13.1294 10.4471C13.2382 10.5151 13.2469 10.5227 13.3767 10.6161C13.3766 10.6159 13.3765 10.6158 13.3763 10.6157C13.4279 10.6525 13.8556 10.9667 13.7861 10.9651C13.5657 10.8212 13.3314 10.6666 13.1064 10.5189C13.1128 10.4942 13.1245 10.4731 13.1294 10.4471ZM16.2456 11.6148C16.246 11.6147 16.2463 11.6145 16.2466 11.6144C16.3256 11.5598 16.404 11.5129 16.4832 11.4537C16.2385 11.7184 16.1302 11.6712 15.8936 11.8934C15.8927 11.8942 15.8919 11.895 15.891 11.8958L15.609 12.1098L15.3271 11.919C15.0423 11.7676 14.8447 11.7054 14.6941 11.4368C14.791 11.475 14.8996 11.5097 15.001 11.5466C15.1632 11.6844 15.2788 11.7636 15.3894 11.8242L15.6052 11.9702L15.8211 11.8064C15.93 11.7063 16.0123 11.6045 16.1502 11.4583C16.182 11.5106 16.2138 11.5625 16.2456 11.6148ZM2.61377 30.0438C2.60389 29.9318 2.7156 29.8888 2.72193 29.8808C2.7219 29.881 2.72187 29.8812 2.72183 29.8814C3.09866 29.1989 2.69814 29.9871 3.11409 29.3832C3.06819 29.4837 3.0241 29.5833 2.97894 29.6831C2.85793 29.8034 2.73028 29.9255 2.61377 30.0438ZM6.8178 8.88986C6.82968 8.8717 6.84074 8.85241 6.85262 8.83425C7.1176 9.18629 7.25005 9.22611 7.41515 9.56104C7.21585 9.33741 7.01673 9.11376 6.8176 8.89001C6.81767 8.88996 6.81773 8.88991 6.8178 8.88986ZM11.3547 9.1039C11.7846 9.33928 12.0961 9.52318 12.4543 9.83254C12.4545 9.83281 12.4548 9.83307 12.455 9.83334C12.4755 9.85138 12.3427 9.81542 12.3662 9.84382C12.4507 9.89159 12.5396 9.93819 12.6256 9.98547C12.6179 10.0214 12.6096 10.0571 12.6019 10.0929C12.3771 9.93364 12.1521 9.77433 11.9264 9.61455C11.9495 9.65372 11.9735 9.69328 11.9966 9.73246C11.7949 9.6124 11.5939 9.4928 11.3921 9.37274C11.4912 9.37045 11.5901 9.36805 11.6884 9.36503C11.5773 9.27796 11.4657 9.19114 11.3547 9.1039ZM11.1142 14.8391C11.0847 14.7641 11.2019 14.8549 11.1438 14.7478C11.0854 14.6408 10.917 14.4905 10.9988 14.4932C11.1043 14.6164 11.2158 14.7453 11.3236 14.8707C11.0896 14.3802 10.6847 14.023 10.7911 13.9308C11.0733 14.3571 11.3424 14.6791 11.6744 15.0465C11.5735 15.0984 11.1959 14.766 11.3026 15.0762C11.2405 14.9979 11.1748 14.916 11.1151 14.8398C11.1148 14.8396 11.1145 14.8394 11.1142 14.8391ZM27.3629 1.05681C27.606 0.877608 28.123 0.415814 28.4636 0.232147C28.5474 0.186978 28.9215 0.157946 28.9371 0.180471C28.9865 0.258699 28.6934 0.50368 29.0526 0.299173C28.9446 0.384372 28.8415 0.4693 28.7349 0.55469C28.7923 0.588383 28.8495 0.622022 28.906 0.65618C29.0312 0.546476 29.1566 0.436609 29.2817 0.326742C29.3008 0.337864 29.3199 0.349038 29.3389 0.360158C28.8682 0.728502 29.1949 0.573572 28.996 0.822551C29.2439 0.676094 29.4934 0.528193 29.7405 0.382364C29.6083 0.479871 29.4536 0.596507 29.3361 0.681441C29.3855 0.776055 29.6423 0.543592 29.7009 0.522457C30.0314 0.403706 28.6594 1.40546 28.644 1.61135C28.8681 1.4577 29.1026 1.29551 29.3314 1.13794C29.2804 1.20176 29.2285 1.26623 29.1774 1.33005C28.6167 1.6345 28.0378 2.03957 27.4197 2.43936C27.3702 2.48357 27.3206 2.52795 27.2718 2.57137C27.3162 2.59677 27.3597 2.62268 27.4042 2.64809C27.3288 2.71403 27.2525 2.78071 27.1772 2.84666C27.3133 2.54224 26.9931 2.79521 26.5463 3.02351C26.719 2.81893 26.9943 2.64606 26.9138 2.57928C26.2534 3.19507 25.3551 3.75614 24.7203 4.36486C24.5626 4.51588 24.6443 4.61932 24.2345 4.9242C24.2392 4.90211 24.2254 4.87967 24.2226 4.85776C23.5655 5.45136 23.1665 5.81107 22.4036 6.32556C22.4745 6.33025 22.5449 6.33563 22.6158 6.34032C22.7548 6.20178 22.8938 6.06273 23.032 5.92482C23.1846 5.90484 23.0515 6.05268 23.509 5.69408C23.8839 5.40031 23.6392 5.54768 23.727 5.44966C23.8457 5.31672 24.0053 5.271 24.1322 5.12697C24.2304 5.0158 24.0664 5.06209 24.3762 4.84073C24.3071 5.00082 24.2373 5.16496 24.1681 5.32649C24.0834 5.3688 23.999 5.41044 23.9142 5.45259C23.9743 5.3772 24.0334 5.30302 24.0936 5.22763C23.858 5.46272 23.6353 5.68481 23.3917 5.92795C23.4049 5.76426 23.1545 6.01741 23.0122 6.14673C22.7906 6.34824 22.941 6.12513 22.7953 6.25662C22.6497 6.38829 22.5405 6.59156 22.2494 6.79382C22.3657 6.63463 22.1327 6.75548 22.1414 6.68564C22.1502 6.61574 22.4384 6.37658 22.1217 6.55532C21.6022 7.01355 22.3099 6.70056 21.9608 7.01228C21.5415 7.38668 21.2465 7.22594 21.3374 7.07077C21.4089 6.94866 21.7721 6.67816 21.8446 6.55558C21.148 6.98096 21.2564 7.13114 21.1694 7.24509C20.8536 7.65919 20.9036 7.17355 20.5119 7.64119C20.4802 7.58244 20.451 7.53021 20.4209 7.47357C20.3472 7.54642 20.3032 7.60107 20.211 7.68515C20.579 7.56034 20.339 7.74086 20.2178 7.83589C20.0268 7.98568 20.3607 7.80409 20.32 7.85638C20.21 7.99719 19.9819 8.15057 20.1492 8.09149C20.0736 8.11724 19.9929 8.14684 19.9157 8.17403C19.7124 8.37445 19.3564 9.00126 19.822 8.56698C19.8383 8.68381 19.6464 8.77151 19.5107 8.85787C19.375 8.94423 19.4173 8.9936 19.2991 9.0708C18.8284 9.37769 19.0485 9.06459 19.0647 8.9413C18.5191 9.44387 19.1139 9.02943 18.2991 9.71716C18.2616 9.83653 18.6962 9.59307 18.3984 9.8778C18.263 9.82712 17.9706 9.94318 17.4817 10.2732C17.4542 10.3307 17.4269 10.3883 17.3993 10.4459C17.0761 10.554 17.1326 10.3596 16.751 10.8369C16.8426 10.4357 16.772 10.7018 16.2874 10.9463C16.1891 10.996 16.3527 10.7998 16.217 10.8712C16.1555 10.9036 16.0496 11.0379 15.8986 11.1161C15.8455 11.1434 15.6433 11.2317 15.4673 11.3536L15.7047 11.3439C15.6376 11.294 15.5669 11.2497 15.4975 11.2201C15.5904 11.4317 15.1121 11.2458 15.4148 11.569C14.7638 11.111 14.2652 10.856 15.1046 11.2017C14.9567 11.059 14.8085 10.9164 14.6605 10.7739C14.5263 10.7218 14.3913 10.6688 14.2565 10.6159C14.2953 10.5177 14.3292 10.5052 13.8557 10.2162C14.0702 10.3278 14.2841 10.4385 14.4996 10.5505C14.5179 10.5375 14.5579 10.5378 14.5623 10.5165C14.2931 10.3873 13.5872 9.94435 13.4033 9.85656C13.2194 9.76875 13.5412 9.98905 13.478 9.97947C12.9523 9.89775 13.0735 9.78307 12.7622 9.62393C12.5794 9.53068 12.9732 9.81824 12.8768 9.76631C12.5193 9.57344 12.4266 9.37261 12.1275 9.17448C12.1976 9.29994 12.2663 9.42571 12.3335 9.55002C12.0208 9.34056 11.6704 9.10985 11.3663 8.93571C11.2469 8.8673 11.3066 8.96555 11.286 8.95601C11.1837 8.90914 10.7904 8.68315 10.7502 8.65702C10.4483 8.45934 10.4773 8.39648 10.1862 8.20095C10.3044 8.27163 10.4155 8.33829 10.5311 8.40747C10.6431 8.34831 10.7562 8.28983 10.8683 8.2305C10.5854 8.03518 10.3024 7.83991 10.0187 7.64403C10.2089 7.81322 10.4 7.98276 10.5902 8.15195C10.212 8.01084 9.83356 7.8699 9.45516 7.72896C9.314 7.57045 9.17353 7.41239 9.03237 7.25388C8.559 6.96053 8.53009 7.20888 8.41671 6.90027C8.27043 6.82404 8.12412 6.74779 7.97794 6.67139C8.01287 6.6609 8.04764 6.65025 8.08257 6.63976C7.90774 6.54555 7.73303 6.45128 7.55808 6.35724C7.67771 6.5541 7.79106 6.75303 7.91057 6.94635C7.57328 6.75066 7.61308 6.6764 7.57603 6.62702C7.47772 6.49614 7.18111 6.39094 7.10696 6.28087C7.08205 6.24343 7.43136 6.40664 7.35639 6.28121C7.34169 6.25678 7.04314 5.78063 6.74096 5.64696C6.7228 5.6858 6.7153 5.74311 6.70105 5.78898C6.32042 5.56995 6.25508 5.26211 6.33773 5.24211C6.11863 5.15027 5.83127 4.96599 5.75394 4.99644C5.65328 4.93234 5.55342 4.86867 5.45275 4.80457C5.64743 4.73458 5.21478 4.48674 5.10947 4.5877C5.27891 4.70314 5.44846 4.81886 5.6179 4.9343C5.39267 4.99492 5.85572 5.42471 4.86069 4.57845C4.70326 4.36666 5.2222 4.83052 5.09063 4.66295C4.81904 4.4374 4.52558 4.28432 4.28144 4.04855C3.97781 3.75492 4.44624 3.97168 3.58292 3.52505C5.22772 4.90555 3.24518 3.50657 2.36505 3.02218C2.28191 2.70453 1.75189 2.25269 0.927494 1.75254L0.776021 1.91585C0.855603 2.01196 0.939583 2.11047 1.0277 2.21106C1.01637 2.12963 0.924465 2.00302 0.828187 1.87569L0.891368 1.80757C0.984078 1.86958 1.07892 1.93122 1.14638 1.9867C1.31036 2.12157 1.09692 2.03052 1.29903 2.20182C1.50123 2.37315 1.94424 2.71645 2.14006 2.9034C1.93004 2.81234 0.948587 2.27874 1.62493 2.58979C1.30954 2.32149 1.13095 2.14174 0.825849 1.90739L0.922801 1.80286C0.994141 1.9113 1.07705 2.03033 1.17929 2.16845C1.38915 2.26431 1.43316 2.2114 1.84056 2.73556C1.48232 2.51583 1.85995 3.17715 1.63597 3.13996C1.37737 2.7449 1.65711 2.86164 1.54811 2.60197C1.53678 2.57546 1.23933 2.25087 1.17929 2.16845C1.34218 2.60165 1.39567 2.75363 1.10212 2.63594C1.30427 2.87547 1.40706 3.04212 1.48534 3.01791C1.49874 3.08994 1.51235 3.16228 1.52513 3.23351C1.58794 3.31375 1.64634 3.38455 1.71173 3.47052C1.71278 3.28198 1.83217 3.55399 1.99881 3.68438C2.16552 3.81476 2.07021 3.54104 2.4146 3.98641C2.32162 3.82117 2.2354 3.67101 2.145 3.5115C2.39006 3.781 2.63596 4.05129 2.88102 4.3208C2.78158 4.07557 2.52785 3.57359 2.61086 3.52876C2.685 3.68272 3.08337 4.09895 3.12362 4.14708C3.27923 4.33363 3.152 4.26462 3.16205 4.28005C3.37205 4.59965 3.57948 4.83636 3.59729 5.00538C3.8039 5.20796 3.91758 5.39318 4.10474 5.6326C4.20774 5.76438 4.2397 5.69874 4.28957 5.78387C4.62085 6.34997 4.17581 5.91027 5.06881 6.80681C5.01221 6.65863 4.95767 6.51142 4.90139 6.36298C5.00148 6.46484 5.10114 6.56599 5.20122 6.66785C5.25252 6.74806 5.30325 6.82764 5.35454 6.90786C5.27507 6.96646 5.19518 7.02486 5.11571 7.08346C5.1749 7.16918 5.23447 7.25514 5.29366 7.34086C5.17708 7.20535 5.06025 7.06951 4.94367 6.934C4.91996 6.93168 4.8969 6.93022 4.87319 6.92789C5.01362 7.15444 5.15328 7.38039 5.29354 7.60706C5.32387 7.59016 5.35434 7.57304 5.38466 7.55614C5.71132 8.05889 5.69696 8.08791 6.1184 8.48035C6.38447 8.8277 6.71558 9.02245 6.91776 9.18602C6.95786 9.26967 6.99784 9.35357 7.03857 9.43802C7.09666 9.46667 7.15502 9.49586 7.21312 9.52451C7.25192 9.64007 7.29168 9.75688 7.33065 9.87231C7.4413 9.86819 7.4839 9.87737 7.23471 9.50172C7.41755 9.55535 7.86123 10.2129 8.02796 10.4912C8.15444 10.7024 7.91482 10.5445 7.92446 10.5757C7.95609 10.6802 8.22833 10.9792 8.27487 11.0501C8.47206 11.3501 8.62876 11.546 8.80956 11.8148C8.84467 11.8672 8.905 12.0428 8.91263 12.0558C8.97552 12.1541 9.12773 12.3991 9.14698 12.4255C10.1388 13.7865 9.24541 12.2041 10.1788 13.4611C10.1771 13.4033 10.1775 13.3486 10.1764 13.2915C10.2501 13.384 10.3246 13.4774 10.3984 13.5699C10.4673 13.706 10.3158 13.5937 10.5304 13.8043C10.4855 13.8144 10.4405 13.8245 10.395 13.8337C10.4919 13.9226 10.5858 14.0079 10.6846 14.0992C10.6965 14.3526 11.1337 14.9746 10.9658 15.0357C10.9087 15.0565 10.5331 14.6661 10.6576 14.9293C10.789 15.1199 10.7484 14.9537 10.8088 15.0262C11.2444 15.5507 11.1433 15.5785 11.3337 15.7834C11.3934 15.7927 11.4551 15.8034 11.5157 15.8133C11.5249 15.8286 11.5341 15.8439 11.5432 15.8592L11.5399 15.7594C11.4829 15.8265 11.4259 15.8937 11.3685 15.9614C11.3782 15.9973 11.3873 16.034 11.397 16.0699C11.4534 15.9886 11.5168 15.897 11.5687 15.8225C11.5885 15.9879 10.984 16.9819 11.1532 16.5619C11.2222 16.391 11.4189 16.1248 11.1966 16.2276C11.0393 16.4966 10.8591 16.8007 10.6928 17.0832C10.6642 17.0764 10.636 17.069 10.6075 17.0623C10.3775 17.4392 10.6917 17.1664 10.7403 17.1999C10.6857 17.2847 10.6303 17.3704 10.5757 17.4553C10.5298 17.476 10.484 17.4944 10.4376 17.5173C10.4707 17.5443 10.5214 17.6461 10.324 17.876C10.1969 18.0237 10.2768 17.7109 10.0845 18.0259C10.1549 18.0397 10.2959 17.9736 10.0857 18.3272C10.0056 18.3228 9.9216 18.3346 9.84363 18.3206C9.61541 18.7825 9.39763 18.9166 9.12913 19.4583C8.95869 19.8019 8.81381 20.3317 8.45515 20.3879C8.2949 20.6155 8.39926 20.579 8.36601 20.6558C8.20929 21.0183 7.94352 21.1885 7.89714 21.2446C7.60116 21.6023 7.52276 21.7989 7.26422 22.0787C7.31669 22.0892 7.36182 22.106 7.41099 22.1191C7.54063 21.7912 7.64039 21.6479 7.92189 21.2546C7.8402 21.395 7.75866 21.5355 7.67697 21.6759C7.72508 21.6761 7.77305 21.6766 7.82042 21.6775C8.51849 20.3459 8.53281 20.7747 7.88277 21.8478C7.76099 21.8965 7.63719 21.9486 7.5158 21.9963C7.2077 22.6612 6.93731 22.8905 6.46346 23.5588C6.40722 23.6383 6.24606 23.957 6.16325 24.085C6.1649 24.083 6.16654 24.0811 6.16819 24.0791C6.17394 24.1969 6.27206 24.108 6.33273 24.1301C6.29344 24.2032 6.2541 24.2763 6.21481 24.3493C6.0727 24.4763 6.07601 24.4005 5.88406 24.7089C5.95082 24.6946 6.01723 24.6808 6.08399 24.6665C5.86467 24.9983 5.6772 25.1862 5.49038 25.5066C5.50992 25.4448 5.52899 25.3837 5.54853 25.3219C5.06323 25.9668 5.18619 25.278 4.96423 25.8619C4.92242 25.8806 4.88097 25.8983 4.83916 25.917C4.97336 25.7049 5.10777 25.4929 5.2414 25.2817C5.21548 25.2583 5.18991 25.2347 5.16343 25.2121C5.02321 25.441 4.88253 25.6712 4.74231 25.9C4.83167 25.7243 4.92165 25.5475 5.01102 25.3718C4.82466 25.6213 4.63825 25.871 4.4519 26.1205C4.74087 25.9163 4.5162 26.2811 4.66556 26.284C4.27283 26.684 3.91794 26.9673 3.5178 27.7266C3.43855 27.8771 3.5627 27.8494 3.20717 28.1897C3.38807 28.1706 3.10881 28.7076 3.2624 28.7171C3.34984 28.5745 3.4427 28.4279 3.52611 28.2887C3.38529 28.4167 3.26268 28.3717 3.38692 28.1175C3.5456 27.793 3.90851 27.4075 3.77942 27.3471C3.86412 27.232 3.94104 27.1237 4.02262 27.0115C4.02003 27.0783 4.01828 27.1444 4.01626 27.2104C4.18958 26.8518 4.34196 26.6554 4.52051 26.5465C4.27654 26.9489 4.03296 27.3503 3.78882 27.7525C3.83223 27.6982 3.8762 27.6432 3.91944 27.5888C3.79685 27.9348 4.07153 27.6767 3.71913 28.2398C3.68714 28.2135 3.65466 28.1879 3.6225 28.1616C3.57998 28.4238 3.21227 28.974 3.4348 28.8687C3.29152 29.0134 3.24844 29.0336 3.24244 29.1657C2.86979 29.551 2.58063 29.7652 2.56387 29.5284C2.47469 29.7043 2.38548 29.8802 2.29687 30.0552C2.39273 29.9831 2.48851 29.9108 2.58436 29.8387C2.39328 30.1207 2.20086 30.4048 2.01052 30.6861C1.89462 30.648 2.34466 30.1208 2.14705 30.2277C2.10746 30.2491 2.04333 30.4267 2.00672 30.4601C1.618 30.8113 2.13763 30.1996 1.97262 30.2695C1.6597 30.7001 1.66489 30.534 1.53485 30.725L1.68745 30.8666C1.765 30.8071 1.88553 30.6947 2.1042 30.4715C2.1468 30.4813 2.19142 30.4904 2.23228 30.5012C2.51864 30.28 2.44832 30.2377 2.68445 30.0348C2.83237 29.9077 3.10789 29.8633 3.22095 29.6586C3.24076 29.6217 2.85433 29.7148 3.458 29.2523C3.92651 28.8933 3.80455 29.1361 4.0813 28.9721C4.3582 28.808 4.83435 28.2313 5.11646 28.2428C4.9698 28.3267 4.79393 28.4476 4.63548 28.5462C4.59794 28.6207 4.56173 28.6937 4.52486 28.7674C4.83087 28.47 5.20978 28.2426 5.38254 27.9999C5.90846 27.7536 6.33311 27.2689 6.10786 27.2589C5.97407 27.3903 6.17312 27.3158 5.94415 27.4431C5.90223 27.4325 5.85928 27.4229 5.81736 27.4124C6.16707 27.1443 6.40758 26.9552 6.31338 27.1609C6.36875 27.1208 6.42361 27.0811 6.47898 27.0409C6.44223 26.974 6.40422 26.9078 6.36747 26.8409C6.42653 26.7839 6.48591 26.7269 6.54497 26.6699C6.62664 26.6271 6.70859 26.5843 6.79119 26.541C6.76737 26.711 6.60417 26.8435 7.19328 26.4677C7.16952 26.434 7.14662 26.3998 7.12286 26.3661C7.61395 26.0488 7.68749 26.118 8.26131 25.6648C7.90739 26.1229 7.50948 26.1121 7.68773 26.3369C7.56523 26.4087 7.44167 26.4811 7.31917 26.5529C7.32792 26.5989 7.33684 26.6448 7.34639 26.6901C7.92831 26.2075 8.74893 25.219 9.2593 25.0504C9.29387 24.9953 9.33041 24.9423 9.36477 24.8852C9.82275 24.6663 9.84004 24.3408 10.3234 24.1427C10.3734 24.1225 10.4301 24.3713 10.9407 23.9618C10.9094 23.9482 10.8716 23.9136 10.8379 23.8919C10.9609 23.8191 11.0838 23.7475 11.2063 23.6757C11.2093 23.6382 11.2133 23.5999 11.2162 23.5622C11.0191 23.7025 10.8224 23.8423 10.6253 23.9827C10.7777 23.8515 10.9311 23.7196 11.0835 23.5884C10.8491 23.714 10.7557 23.7864 10.8355 23.632C11.012 23.4885 11.1886 23.3446 11.3651 23.2012C11.3721 23.1721 11.3789 23.1429 11.3859 23.1138C11.2649 23.1379 11.1439 23.1637 11.0224 23.1872C11.5172 22.858 11.9246 22.5428 12.3502 22.3486C12.4226 22.3154 12.2511 22.5411 12.6271 22.1646C12.6571 22.1897 12.6875 22.2055 12.7165 22.2277C13.1599 21.745 13.347 21.6395 13.9259 21.2853C13.5375 21.4972 13.8733 21.2944 13.937 21.1954C13.9806 21.1275 13.7488 21.3137 13.7581 21.271C13.7675 21.2284 14.003 20.9023 13.7344 21.0951C13.2377 21.7746 12.8949 21.6942 12.1431 22.4217C12.2511 22.2998 12.3599 22.1771 12.4678 22.0551C12.3961 22.0858 12.3316 22.113 12.2543 22.1464C12.7391 21.8245 12.4988 21.9753 12.6649 21.8006C12.8311 21.6258 13.1544 21.335 13.3774 21.1484C13.4477 21.0896 13.4033 21.1896 13.5691 21.0661C13.682 20.9821 13.938 20.6851 14.0634 20.7013C14.1453 20.7117 13.7577 21.2193 14.4307 20.6929C14.5927 20.6391 14.259 20.8773 14.2563 20.8882C14.2397 20.9878 14.6852 20.7049 14.8443 20.5143C14.857 20.4987 14.6732 20.5748 14.8246 20.43C15.1836 20.0861 15.4463 19.9583 15.7495 19.8261C15.74 19.7972 15.7557 19.7465 15.7937 19.6818L15.8062 19.6723L15.8188 19.6808C15.9936 19.7171 16.2838 19.8479 16.575 20.0692C16.6123 20.0606 16.6488 20.0511 16.6863 20.0423C16.611 20.0104 16.5358 19.9784 16.4605 19.9465C16.3967 19.8838 16.326 19.8222 16.2656 19.7581C16.7143 20.0241 16.8491 19.9529 17.0848 20.0492C17.8912 20.3789 17.2643 20.3896 17.102 20.3559C17.0225 20.2743 16.9478 20.1923 16.8699 20.1102C16.8616 20.1451 16.8533 20.1804 16.8441 20.2149C17.9146 20.9164 16.8868 20.5049 17.3955 20.9139C17.6264 20.8669 18.0341 21.1154 18.4844 21.537C18.5412 21.5732 18.5978 21.6101 18.6546 21.6462C18.6772 21.6321 18.6974 21.6011 18.7215 21.5978C19.3491 21.9761 19.3179 22.2614 19.3626 22.3197C19.5611 22.5785 19.8431 22.5859 19.9197 22.6346C20.2423 22.8402 20.299 22.9563 20.6189 23.1324C20.963 23.3217 20.767 23.1324 20.8915 23.1599C20.9911 23.1823 21.2528 23.3464 21.38 23.3852C21.3209 23.3829 21.2573 23.377 21.1983 23.3749C21.5147 23.6324 21.7697 23.8483 22.1495 24.1097C22.7068 24.2084 22.8701 24.7661 22.8877 24.4123C22.5342 24.1553 22.3493 23.9922 22.1967 23.799C22.4417 23.9479 22.6867 24.0972 22.9317 24.2461C22.9832 24.32 23.0149 24.3799 23.0789 24.4627C23.2969 24.5207 23.6952 24.8187 23.8696 24.9082C24.6864 25.3272 24.517 25.0708 25.1015 25.6986C24.5886 25.3857 24.535 25.4691 24.0446 25.1308C24.1132 25.2605 24.3742 25.4143 24.164 25.3778C24.6571 25.6765 24.543 25.511 24.7673 25.5778C24.9609 25.6355 25.2882 25.8465 25.3112 25.7714C25.3217 25.8279 25.3255 25.8783 25.336 25.9347C25.6482 26.1392 25.9602 26.3439 26.2724 26.5484C26.1157 26.4972 25.959 26.4462 25.8023 26.3949C25.8939 26.4745 25.9856 26.5542 26.0772 26.6338C26.9184 27.0251 28.1063 28.0998 28.0804 27.6785C28.4563 27.9124 28.4793 27.9782 28.6454 28.1637C28.6816 28.1568 28.7149 28.1531 28.7527 28.1438C28.9767 28.3229 29.2128 28.3627 29.4096 28.5218C29.6065 28.6808 29.6088 28.7912 29.7235 28.6835C29.8358 28.8097 29.9514 28.9292 30.0646 29.0522C30.1654 29.0769 30.266 29.1018 30.3659 29.126C30.4358 29.1849 30.5059 29.2438 30.5759 29.3026L30.4742 29.4123C30.4421 29.3584 30.4099 29.3045 30.3778 29.2507C30.2701 29.2305 29.9282 28.7346 29.7276 28.5544C29.6364 28.307 29.837 28.1613 29.4406 27.7191C29.4012 27.7687 29.3618 27.818 29.3225 27.8676C29.2499 27.7523 29.1771 27.6368 29.104 27.5207C29.1149 27.502 29.1265 27.4842 29.1374 27.4655C29.1748 27.5242 29.2116 27.5822 29.2488 27.6411C29.239 27.5727 29.2298 27.5054 29.2206 27.4378C29.0545 27.3044 28.8882 27.1709 28.7215 27.0367C28.8624 27.2821 29.0033 27.5276 29.1442 27.7731C28.8938 27.5218 28.7801 27.3002 28.5536 27.0885C28.4585 26.8258 28.5571 26.8739 28.696 26.9033C28.6295 26.8298 28.5624 26.7551 28.4959 26.6815C28.6087 26.6771 28.5501 26.511 28.8969 26.9737C28.8934 26.9262 28.8885 26.8788 28.8866 26.8315C28.8254 26.7588 28.8055 26.6965 28.734 26.6203C28.5391 26.4126 28.2783 26.339 28.2452 26.3889C28.2281 26.4153 28.4436 26.6022 28.4035 26.6189C28.3055 26.6595 27.9507 26.1232 28.4334 26.9189C28.1945 26.7155 28.1916 26.6311 28 26.3513C27.9891 26.3931 27.978 26.4342 27.9665 26.4752C27.8832 26.3412 27.7997 26.2071 27.7164 26.0731C27.9884 26.1391 27.3345 25.1816 28.0917 25.9138C27.9101 25.665 27.7291 25.417 27.5485 25.1687C27.6013 25.2079 27.654 25.2471 27.7068 25.2862C27.7839 25.4019 27.8605 25.5169 27.9378 25.6325C27.8643 25.4831 27.7905 25.3337 27.7171 25.1843C27.4497 24.9037 27.3078 24.8222 27.1388 24.7296C27.3677 25.1196 27.3394 24.9564 27.5648 25.224C27.5185 25.2443 27.4927 25.2846 27.4332 25.2918C27.4035 25.0867 26.9855 24.6648 26.8982 24.5595C26.6326 24.2392 26.9106 24.4367 26.7426 24.215C26.5744 23.9931 26.327 23.7691 26.2667 23.5285C26.2252 23.5656 26.1908 23.615 26.1608 23.6587C25.8819 23.3264 25.9866 23.3549 25.966 23.3142C25.6398 22.6617 25.3095 22.4257 24.7986 21.7855C24.8485 21.8784 24.9003 21.9711 24.9516 22.0642C24.4814 21.6464 24.7638 21.9542 25.0602 22.403C24.7628 21.9974 24.5078 21.8304 24.2676 21.5673C24.0276 21.3042 23.6972 20.7906 23.5933 20.5898C23.9549 20.9537 24.256 21.4147 24.6148 21.8516C24.6203 21.7662 24.6201 21.6876 24.6289 21.5972C24.3253 21.3972 24.2667 21.191 24.2101 21.0917C24.0439 20.8002 23.9696 20.8705 23.9338 20.6446C23.909 20.674 23.8875 20.698 23.8646 20.726C23.4584 20.1725 23.0596 19.5452 22.6769 19.276C22.7237 19.1885 22.774 19.111 22.8185 19.0175C22.5873 18.8287 22.4907 18.589 22.3288 18.4047C22.1675 18.2213 22.1662 18.3394 21.9691 18.1295C21.9326 18.0907 21.9015 17.9752 21.7952 17.8924C21.6879 17.8086 21.1915 17.5772 21.3306 17.3967C21.1815 17.2013 21.046 17.0121 20.9022 16.8191C21.0551 16.9974 21.2077 17.176 21.36 17.3535C21.2804 17.1625 21.2014 16.9727 21.1218 16.7817C21.0686 16.7905 21.0146 16.7998 20.9624 16.8091C20.588 16.4177 20.4113 16.0606 20.0652 15.6411C20.0073 15.571 20.0634 15.7981 19.8367 15.4644C19.8223 15.4432 19.8087 15.4219 19.7956 15.4006L19.796 15.4109C20.0319 15.1274 20.3249 14.9586 20.6287 14.3886C20.645 14.3578 20.6458 14.1141 20.8597 13.9613C20.9083 13.9264 20.8037 14.1396 20.898 14.0482C20.9924 13.9567 21.3295 13.4923 21.4093 13.4916C21.3865 13.4837 21.3465 13.5001 21.317 13.5013C21.362 13.4136 21.4076 13.3252 21.4534 13.2368C21.4927 13.252 21.5325 13.2667 21.5717 13.2818C21.8044 12.7603 21.8357 12.4315 22.3416 11.7662C22.1617 11.9281 21.9816 12.09 21.8022 12.2511C21.8015 12.3279 21.801 12.4049 21.8009 12.4808C21.5736 12.7913 21.3459 13.1028 21.1186 13.4134C21.1233 13.4925 21.1285 13.5706 21.1332 13.6498C21.0714 13.7312 21.0104 13.8118 20.9487 13.8932C20.9341 13.8528 20.9197 13.8124 20.9057 13.7711C20.8007 13.9438 20.6958 14.1168 20.5914 14.2886C20.6485 13.8352 21.2395 13.3481 21.0682 13.2974C21.1405 13.2366 21.2131 13.1758 21.2857 13.1152C21.2389 13.0361 21.3611 12.8959 21.5524 12.6326C21.4771 12.6719 21.398 12.718 21.3259 12.752C21.5492 12.5208 21.8557 12.0512 22.0558 11.7911C22.1436 11.6769 22.1139 11.8296 22.1435 11.798C22.2958 11.636 22.4412 11.2292 22.4968 11.1608C22.8287 10.7521 23.1828 10.5788 23.3914 10.0302C23.0369 10.5036 23.2265 10.2439 23.0495 10.3784C22.994 10.4204 22.5312 11.0288 23.0788 10.2457C23.1432 10.154 24.219 8.78801 23.9903 9.32036C24.118 9.06841 24.2076 8.86421 24.3206 8.63063C24.8996 8.26162 24.5625 8.29815 24.3421 8.37056C24.3987 8.28451 24.4519 8.20218 24.5107 8.11394C24.5109 8.38495 25.1558 7.43478 25.3088 7.0685C25.3602 6.94589 25.1176 7.22284 25.2662 6.95907C25.3547 6.84533 25.4565 6.71725 25.5506 6.59742C25.3492 6.72786 25.5586 6.34784 25.4746 6.29913C25.6998 6.11709 25.9693 6.04273 25.9675 6.2241C26.0608 6.0118 26.1549 5.79853 26.248 5.58611C26.1701 5.6616 26.0915 5.73836 26.0135 5.81385C26.4784 5.22651 26.8958 4.35106 27.1517 4.33413C27.2054 4.25103 27.2598 4.16715 27.3135 4.08405C27.3019 4.03953 27.2897 3.99583 27.2781 3.95131C27.5512 3.59543 27.824 3.24051 28.0972 2.88464C27.8937 3.22806 27.8818 3.33414 27.6168 3.65984C27.7391 3.54776 27.8632 3.43331 27.9837 3.32377C28.2444 2.74122 28.2338 2.63101 28.7859 1.86036C28.8109 1.82553 29.2823 1.27947 29.3031 1.26393C29.3984 1.19269 29.352 1.36634 29.3964 1.33594C29.5202 1.25178 30.1054 0.629006 30.1141 0.654412C30.2175 0.97098 28.6469 3.33215 28.2325 3.97769C25.6541 7.99448 23.013 11.8937 20.3711 15.7945L20.3435 14.9789C22.2423 17.4824 24.1417 19.9863 26.081 22.4849C26.131 22.549 26.1399 22.4973 26.1624 22.5238C26.3013 22.6883 26.3825 22.8925 26.4291 22.957C26.5287 23.0948 26.5156 22.9868 26.5914 23.0851C27.3735 24.1022 28.0861 25.0816 28.8769 26.0933C28.9284 26.1592 28.8411 26.1187 28.9369 26.2303C28.9866 26.2877 29.1854 26.4342 29.2906 26.5691C29.6579 27.0406 29.9468 27.4517 30.3321 27.9506C30.5424 28.2228 30.8524 28.635 31.0882 28.9396L30.1507 29.9504C30.15 29.9499 30.1494 29.9495 30.1487 29.9491C30.0062 29.856 29.8408 29.7848 29.6996 29.6934C29.4993 29.5636 29.5748 29.5375 29.5462 29.514C29.421 29.4113 29.3642 29.4571 29.2372 29.3718C29.0011 29.2128 29.0138 29.1657 28.7098 28.9708C28.4925 28.8317 27.9787 28.5382 27.7008 28.3687C27.0943 27.9062 26.2811 27.3979 25.6779 27.0233C25.3208 26.8015 25.3239 26.7258 25.1806 26.632C24.6752 26.3017 24.2467 26.1197 23.7712 25.8108C23.1402 25.4008 22.6128 24.989 22.0055 24.5856C21.907 24.5202 21.897 24.5848 21.7992 24.5225C21.4372 24.2915 20.9722 23.9993 20.6571 23.7823C20.3059 23.5406 20.2219 23.3821 19.8635 23.1679C19.7584 23.1052 19.6869 23.1488 19.5103 23.0445C19.2282 22.8777 18.9648 22.6249 18.7779 22.4933C18.5216 22.3131 18.7069 22.5271 18.3596 22.2867C18.3453 22.2768 18.3228 22.196 18.2456 22.1485C18.0206 22.0098 18.0187 22.0605 17.6978 21.8449C17.6672 21.824 17.2675 21.4989 17.2251 21.4707C16.9749 21.3055 16.4803 20.9588 16.3258 20.8708C15.7736 20.5559 16.1456 20.8993 15.7934 20.4527C15.668 20.4001 15.5431 20.3479 15.4161 20.2942L16.2455 20.26C16.1743 20.34 16.1017 20.421 16.0265 20.5036C16.1343 20.3686 15.5613 20.7432 15.5259 20.7757C15.2319 21.0435 15.4612 20.9532 15.0579 21.2537C15.4814 20.7173 14.534 21.6366 14.3059 21.8201C13.2077 22.7038 12.1733 23.4609 11.0578 24.334C10.6844 24.6263 10.2047 25.0446 9.80886 25.3529C9.71668 25.4248 9.76273 25.3403 9.6811 25.403C9.59985 25.4658 9.71608 25.4295 9.62232 25.4999C9.03859 25.9371 8.53844 26.225 8.07454 26.7163C8.03988 26.7247 8.03357 26.715 7.98122 26.7354C7.60642 27.1436 6.70165 27.6956 6.37953 27.9261C5.87581 28.2867 5.78904 28.4324 5.42712 28.6995C4.94842 29.0526 4.17113 29.5077 4.60723 29.4183C4.28966 29.6743 3.98131 29.9175 3.64536 30.1567C3.60794 30.1832 3.60184 30.1241 3.58674 30.1346C3.49072 30.2005 3.48863 30.2593 3.42803 30.3093C3.26371 30.4448 3.50424 30.1883 3.27433 30.3871C3.15314 30.4921 3.1057 30.579 2.75587 30.8535C2.53479 31.0268 2.3116 31.2016 2.08668 31.3774L0.995468 30.3653C2.34799 28.3361 3.79478 26.1883 5.16448 24.1453C5.26952 23.9886 5.1601 24.0649 5.29398 23.8698C5.75906 23.1919 6.64365 22.0132 7.02767 21.4173C7.41165 20.8214 7.26369 20.915 7.485 20.5294C7.52772 20.4549 7.52249 20.5359 7.56602 20.4717C7.8583 20.0402 8.2557 19.5584 8.4979 19.2124C8.65814 18.9837 8.59263 18.9669 8.69632 18.8032C8.85096 18.5594 9.06944 18.348 9.15661 18.2211C9.5659 17.6238 9.79887 17.1808 10.1961 16.633C10.1697 16.6473 10.1492 16.6546 10.1253 16.6655C10.4112 16.2394 10.6969 15.8137 10.9827 15.3878L11.0126 16.2677C10.838 16.0396 10.6634 15.8115 10.4888 15.5833C10.5016 15.621 10.5136 15.6578 10.5263 15.6957C9.95896 14.9471 10.1346 14.9471 9.9522 15.1918C9.90234 15.1439 9.84866 15.0939 9.80131 15.048C9.93738 14.9767 9.67854 14.4589 9.26802 13.8625C9.23797 13.8187 8.90401 13.6267 9.06576 13.5511C8.97536 13.5035 8.91834 13.4776 8.84076 13.4383C8.78928 13.2849 8.73605 13.1303 8.68441 12.977C8.6278 12.9164 8.5707 12.8546 8.5141 12.794C8.47957 12.8051 8.45721 12.8342 8.41446 12.8336C8.17648 12.5329 7.73023 11.884 7.54198 11.6465C7.07417 11.0568 6.53358 10.5058 6.25554 9.98108C6.07354 9.76131 6.19316 10.0266 5.94118 9.68534C5.93884 9.62667 5.93713 9.57112 5.93437 9.5102C5.60279 9.32802 5.63171 9.21437 5.36707 8.81863C5.18818 8.55094 5.0305 8.40685 4.84963 8.16001C4.80382 8.09745 4.84579 8.07901 4.81229 8.03787C4.70031 7.89991 4.34265 7.53569 4.26484 7.43732C3.55908 6.54691 2.96919 5.7693 2.32213 4.90189C2.25253 4.80874 2.30967 4.95499 2.23774 4.85848C2.12196 4.70328 2.24493 4.75238 2.17914 4.66148C1.99532 4.40815 1.93747 4.44968 1.66832 4.10613C1.22356 3.53836 0.758845 2.91757 0.290953 2.28922L1.2634 1.24081C1.90652 1.6778 2.55504 2.12079 3.17887 2.53313C3.2181 2.55887 3.23864 2.52248 3.2815 2.55011C3.5605 2.73082 3.81085 2.96258 4.0635 3.12768C4.48259 3.40179 4.82937 3.55935 5.24278 3.83097C6.05094 4.36171 6.75665 4.86083 7.58703 5.40789C8.26663 5.85572 8.86059 6.23895 9.60651 6.72884C11.7147 8.11333 13.8813 9.46949 16.0264 10.8537L15.1063 10.8916C16.1969 10.0255 17.2934 9.16807 18.4003 8.33463C18.4801 8.2746 18.4708 8.32867 18.4938 8.30865C18.7122 8.11775 18.7019 8.06266 18.8472 8.08126C19.1253 7.83789 19.1689 7.70457 19.5234 7.4346C19.7124 7.29067 19.6473 7.49536 19.9254 7.19871C20.1765 6.93079 19.8201 7.12497 20.712 6.51412C20.7357 6.49801 20.8919 6.46966 21.0569 6.31636C21.2227 6.16256 20.9846 6.28153 21.4023 5.93487C22.383 5.12116 23.6928 4.17867 24.8475 3.25135C24.9199 3.19322 25.5998 2.61171 25.7276 2.48872C25.9749 2.25058 25.8849 2.25124 26.226 1.96756C26.4897 1.74839 26.7508 1.6233 27.0605 1.36544C27.0966 1.33536 27.1191 1.23656 27.3629 1.05681ZM6.29849 26.8117C6.32574 26.7108 6.3024 26.4358 6.74413 26.1798C6.78598 26.1555 6.67993 26.4401 6.91557 26.288C6.71054 26.4695 6.50416 26.6377 6.29864 26.8119C6.29859 26.8119 6.29854 26.8118 6.29849 26.8117ZM29.9971 0.86791C29.6918 1.09177 29.3856 1.31651 29.0803 1.54037C29.2688 1.35759 29.4577 1.17461 29.6453 0.992289C29.7628 0.950597 29.8796 0.909603 29.9971 0.86791ZM8.2235 10.7975C8.22328 10.7972 8.22306 10.7969 8.22284 10.7966C8.48908 11.0937 8.75551 11.3908 9.02175 11.6878C8.97886 11.6681 8.93583 11.6483 8.89294 11.6286C8.67398 11.4008 8.45496 11.1728 8.23663 10.9458C8.23228 10.8964 8.22785 10.8469 8.2235 10.7975ZM6.12261 8.44899C5.98837 8.23184 6.06114 8.25427 6.00986 8.11741C6.00979 8.11745 6.00973 8.1175 6.00966 8.11755C5.99601 8.08152 5.89898 7.93947 5.85981 7.88585C5.85293 7.92204 5.85067 7.96367 5.8452 8.00135C5.43094 7.57244 4.91178 6.5097 5.90252 7.64036C5.86129 7.64379 5.8208 7.6479 5.77957 7.65133C6.24204 8.23619 6.68924 8.9408 6.12261 8.44899ZM10.9604 23.0416C11.3917 22.56 11.5377 22.4154 12.1941 22.0015C12.1281 22.0941 12.062 22.1867 11.9959 22.2792C11.8752 22.3318 11.7554 22.384 11.6347 22.4365C11.6344 22.4368 11.6341 22.437 11.6338 22.4372C11.635 22.4801 11.6362 22.5232 11.6382 22.5655C11.4125 22.7239 11.186 22.8831 10.9604 23.0416ZM14.0559 10.7699C14.0794 11.0573 14.1092 10.9187 13.6575 10.6835C13.5011 10.6022 13.6222 10.7292 13.5273 10.6749C13.0148 10.3817 13.059 10.2285 13.2124 10.2344C13.4942 10.413 13.7786 10.5938 14.055 10.7693C14.0553 10.7695 14.0556 10.7697 14.0559 10.7699ZM26.4134 3.27888C26.4137 3.27866 26.414 3.27843 26.4143 3.27821C26.4605 3.31249 26.2825 3.47053 26.5259 3.34695C26.3652 3.4723 26.2043 3.59746 26.0428 3.72344C26.0869 3.68238 26.1323 3.64071 26.1764 3.59964C26.1229 3.61729 26.0691 3.63484 26.0156 3.65249C25.9978 3.7473 25.922 3.75954 25.7401 3.87459C25.8287 3.89182 25.917 3.90926 26.0056 3.92649C25.797 4.06372 25.5878 4.20144 25.3792 4.33866C25.3662 4.32702 25.3532 4.3154 25.3402 4.30376C25.2798 4.3788 25.2203 4.45344 25.1599 4.52848C25.1272 4.52803 25.0954 4.52716 25.0627 4.52672C24.983 4.60863 24.9033 4.69064 24.8238 4.77272C24.7661 4.75482 24.9494 4.58434 24.6088 4.86653C24.6843 4.7429 24.7597 4.61957 24.836 4.49531C25.3617 4.08975 25.8876 3.68428 26.4134 3.27888ZM10.1642 8.29891C10.7807 8.69222 10.5888 8.60927 10.3855 8.61049C10.312 8.50684 10.2376 8.40256 10.1642 8.29891ZM6.91857 23.1868C6.86474 23.4059 6.80979 23.6253 6.7509 23.8472C6.54659 24.2307 6.19012 24.5129 6.32501 24.2118C6.48756 23.8495 6.7758 23.5501 6.91857 23.1868ZM1.9494 30.2425C1.51059 30.5402 1.84665 30.1618 1.90791 30.0464C2.07588 30.0237 2.23206 29.8921 2.49648 29.698C2.25734 29.8919 2.02206 30.1934 1.94955 30.2427C1.9495 30.2426 1.94945 30.2426 1.9494 30.2425ZM11.7147 16.1512C11.7566 16.0868 11.7963 16.0212 11.836 15.9569L11.9436 15.8003L11.8253 15.6421C11.7404 15.5396 11.6592 15.4385 11.5986 15.3325C11.6917 15.333 11.8701 15.6743 11.7909 15.393C11.8361 15.4501 11.8813 15.5072 11.9265 15.5642L12.1007 15.7972L11.9422 16.0277C11.9082 16.0804 11.8742 16.133 11.8404 16.1853C11.8503 16.0892 11.7585 16.1662 11.7152 16.1509C11.715 16.151 11.7149 16.1511 11.7147 16.1512ZM4.1937 4.48331C3.89353 4.18229 3.80719 4.17011 3.42371 3.99043C3.41318 3.89885 3.89606 4.074 4.17213 4.224C4.17898 4.3102 4.18599 4.39655 4.1937 4.48331ZM22.4691 10.7719C22.4887 10.9051 22.0895 11.5249 21.864 11.8148C21.8771 11.7711 21.8901 11.7271 21.903 11.6833C22.0914 11.3799 22.2806 11.0753 22.4691 10.7719ZM2.62314 29.6068C2.57828 29.6385 2.53608 29.669 2.49648 29.698C2.53888 29.6636 2.58135 29.6324 2.62314 29.6068ZM20.4996 22.8754C20.3072 22.8508 20.7247 23.1591 20.217 22.7859C20.2169 22.786 20.2169 22.7861 20.2169 22.7861C19.881 22.5395 19.8074 22.4841 19.4888 22.2671C19.6648 22.2519 20.34 22.6484 19.4513 22.038C19.4394 22.0301 19.4274 22.1 19.2883 21.998C19.2454 21.9666 19.1324 21.8286 18.9246 21.6736C18.8574 21.6236 18.3411 21.2649 19.0578 21.7342C19.0783 21.6565 19.159 21.6173 19.1979 21.5544C19.4892 21.7199 19.6222 21.9857 19.92 22.1767C20.3622 22.4601 20.6684 22.4807 20.6443 22.7015C20.2484 22.4998 19.6137 22.0846 19.5963 21.9309C19.2399 21.6952 19.0839 21.7094 19.3454 21.9387C20.6128 22.6974 19.6047 22.282 20.7277 22.9261C20.7556 22.9115 20.8162 22.9159 20.8237 22.8898C21.1002 23.1872 20.5683 22.8841 20.4996 22.8754ZM18.0353 21.006C18.2803 21.0973 18.525 21.1878 18.7693 21.2783C18.7173 21.3576 18.5535 21.3518 18.1883 21.176C18.1376 21.1195 18.086 21.0624 18.0353 21.006ZM26.5005 24.3794C26.4372 24.3817 26.3401 24.333 26.2577 24.3063C26.2449 24.2184 25.1581 22.7382 25.7616 23.4523C25.8492 23.556 26.2817 24.2672 26.5005 24.3794ZM6.65165 6.00389C6.48986 5.85634 6.32884 5.70923 6.1679 5.56224C6.45686 5.72569 6.74637 5.88881 7.03556 6.05191C6.90733 6.03572 6.77987 6.02008 6.65165 6.00389ZM4.89037 26.0648C4.94265 25.9899 4.83331 26.2816 5.02368 25.976C4.91256 26.2243 4.8051 26.4546 4.69513 26.6963C4.62366 26.743 4.55185 26.7905 4.48038 26.8373C4.46433 26.9001 4.44751 26.9639 4.43146 27.0267C4.4112 26.9691 4.38964 26.9154 4.36982 26.8556C4.70199 26.5463 4.65938 26.3962 4.89037 26.0648ZM11.0096 15.1741C11.0453 15.0464 11.4854 15.5146 11.1151 15.0058C11.2432 15.0578 11.3892 15.1875 11.6187 15.4755C11.6336 15.5386 11.6486 15.6015 11.6635 15.6646C11.6944 15.646 11.7296 15.6515 11.7781 15.6785L11.8703 15.8018L11.7864 15.9238C11.7765 15.978 11.7508 16.0513 11.7147 16.1512C11.7145 16.1513 11.7144 16.1514 11.7142 16.1515C11.4079 16.62 11.4067 16.579 11.2344 16.6259C11.5748 16.2213 11.5509 16.1171 11.6604 15.8398L11.684 15.8055L11.6581 15.7708C11.629 15.7462 11.598 15.7186 11.5643 15.6868C11.3604 15.4937 11.1552 15.1946 11.0096 15.1741ZM27.6946 25.9287C27.368 25.6513 27.5311 26.0003 27.1531 25.3531C27.2003 25.3772 27.2476 25.4016 27.2949 25.4257C27.4283 25.5932 27.5615 25.7609 27.6946 25.9287ZM10.0366 13.3134C9.93557 13.4516 10.0748 13.8423 10.3278 13.7326C10.1364 13.3947 10.1309 13.6359 10.0366 13.3134ZM1.96567 30.5564C1.81342 30.6728 1.70036 30.7435 1.61959 30.7797C1.7784 30.6472 1.82295 30.7397 1.79776 30.9004L1.49287 30.6176C1.50989 30.5845 1.53151 30.5491 1.55667 30.5132C1.61442 30.5109 1.67216 30.5086 1.72897 30.5068C1.8216 30.415 1.91422 30.3231 2.00698 30.2315C1.99318 30.3397 1.97946 30.4481 1.96567 30.5564ZM1.94277 3.09447C2.38042 3.47064 1.62245 2.57133 1.92127 2.83942C2.15992 3.05343 2.31953 3.45465 2.16501 3.37539C2.0968 3.29017 2.02155 3.19479 1.94343 3.09533C1.94321 3.09505 1.94299 3.09476 1.94277 3.09447ZM3.96376 5.66498C4.00654 5.51498 4.05915 5.64324 3.76898 5.30326C3.68612 5.20615 3.10551 4.37465 3.2826 4.77505C3.5034 5.0619 3.73524 5.36606 3.96376 5.66498ZM8.58681 25.1493C8.62579 25.1881 8.08497 25.7629 7.98761 25.8009C7.98766 25.801 7.98771 25.8011 7.98776 25.8011C7.72446 25.9031 8.36567 25.3873 8.01536 25.5187C8.69892 25.1098 8.73821 24.776 8.88854 25.0579C8.53018 25.3554 8.66393 25.1686 8.58681 25.1493ZM28.0532 2.86252C28.0534 2.86222 28.0536 2.86192 28.0538 2.86162C28.0226 2.90377 27.7164 3.21841 27.7225 3.15934C28.0303 2.7407 28.0229 2.84693 28.2189 2.3968C28.2568 2.39025 28.2919 2.3864 28.3312 2.37827C28.2385 2.54697 28.2075 2.65401 28.0532 2.86252ZM25.377 22.7394C25.5047 22.8818 25.6701 23.1937 25.8054 23.3637C25.2035 22.9544 24.8674 22.1703 25.377 22.7394ZM20.7834 7.68851C20.783 7.68891 20.7827 7.68931 20.7823 7.6897C20.7823 7.68951 20.7824 7.68928 20.7825 7.68908C20.7828 7.68889 20.7831 7.6887 20.7834 7.68851ZM25.298 25.7122C25.3105 25.7381 25.3151 25.7564 25.3131 25.7685C25.3125 25.7694 25.3119 25.7703 25.3113 25.7712C25.3078 25.7524 25.3036 25.7329 25.298 25.7122ZM9.85411 24.138C10.157 23.9979 9.37861 24.7599 9.085 24.9527C9.08287 24.9102 9.06648 24.883 9.08684 24.8164C9.36489 24.7134 9.80362 24.1612 9.85411 24.138ZM9.56358 19.1288C9.08706 19.8395 9.45481 18.7462 9.67986 18.8411C9.68277 18.8452 9.57551 19.1102 9.56358 19.1288ZM4.55644 28.318C4.44072 28.5239 4.80082 28.2732 4.23913 28.6922C4.19249 28.6987 4.14583 28.7052 4.09919 28.7117C4.25159 28.5805 4.40404 28.4491 4.55644 28.318ZM6.12481 23.5733C5.56942 24.4974 5.07233 25.404 5.67042 24.9597C5.70894 24.8874 5.74831 24.8143 5.78683 24.742C5.69172 24.6639 5.91423 24.4507 6.16184 24.0867C6.15621 24.0075 6.28233 23.7981 6.27338 23.7371C6.25608 23.619 6.0537 23.8213 6.12481 23.5733ZM16.1334 11.0211C16.1326 11.0482 16.1322 11.0752 16.1313 11.1022C16.0116 11.2257 15.8915 11.3493 15.7718 11.4728C15.7688 11.4243 15.7658 11.3757 15.7628 11.3271C15.8862 11.2251 16.009 11.1236 16.1325 11.0216C16.1328 11.0215 16.1331 11.0213 16.1334 11.0211ZM17.0161 20.6461C17.2241 20.5074 16.9151 20.3553 16.2715 20.072C16.5193 20.2631 16.7683 20.455 17.0161 20.6461ZM6.72476 9.72415C6.76288 9.66651 6.80107 9.60927 6.83857 9.55082C6.56003 9.3006 6.54241 9.40044 6.58147 9.59303C6.62947 9.63709 6.67676 9.6801 6.72476 9.72415ZM3.46778 5.53853C3.55013 5.66788 3.54442 5.57392 3.55332 5.58723C3.76712 5.91046 3.78115 5.96837 4.10192 6.31994C4.14836 6.35754 4.19476 6.39392 4.24153 6.43127C4.21634 6.17398 4.06008 6.09336 3.84085 5.6766C3.85463 5.77153 3.86815 5.86623 3.88177 5.96129C3.73228 5.7508 3.58334 5.54125 3.43386 5.33077C3.40371 5.31536 3.37364 5.29982 3.34349 5.28441C3.3847 5.36848 3.42588 5.45629 3.46778 5.53853ZM17.722 9.8551C17.923 9.70485 18.125 9.55406 18.326 9.40381C18.3125 9.37158 18.2985 9.33939 18.2849 9.30715C18.0975 9.4896 17.9094 9.67266 17.722 9.8551ZM21.38 23.3852C21.4032 23.3862 21.426 23.3867 21.4472 23.386C21.4376 23.3975 21.413 23.3953 21.38 23.3852ZM28.5745 2.41447C28.752 2.19087 28.9666 1.84119 29.1438 1.58432C29.0598 1.55777 28.6392 2.23063 28.442 2.43388C28.4298 2.47954 28.4995 2.50901 28.5745 2.41447ZM1.9418 30.2601C1.94629 30.1772 1.95089 30.0946 1.95481 30.0126C2.05424 29.8718 2.15409 29.7307 2.25408 29.589C2.22816 29.5656 2.20193 29.5421 2.17601 29.5186C1.78958 30.179 1.80436 29.9772 1.51278 30.2372C1.65596 30.2444 1.79845 30.2527 1.9418 30.2601ZM23.877 4.76686C23.4566 5.12504 23.3293 5.27996 23.6383 5.17015C23.777 5.03149 23.9167 4.89211 24.0555 4.75345C23.9958 4.75812 23.9359 4.76281 23.877 4.76686ZM29.7377 28.9648C30.1343 29.18 30.0783 29.3 30.4629 29.4748L30.6374 29.2866C30.6292 29.2788 30.6206 29.2708 30.6118 29.2627C30.6179 29.2726 30.6239 29.2825 30.63 29.2923L30.468 29.467C30.2891 29.3203 30.1103 29.1734 29.9321 29.0272C29.8678 29.0067 29.802 28.9854 29.7377 28.9648ZM11.4445 23.722C11.6278 23.6402 11.7731 23.2347 12.3092 23.0313C12.3808 22.911 12.4154 22.8225 12.4732 22.7143C12.5579 22.7167 12.65 22.7141 12.732 22.7181C12.7323 22.7178 12.7326 22.7176 12.7329 22.7174C13.113 22.3972 12.8176 22.5421 12.7911 22.49C12.7806 22.4681 13.0956 22.2724 12.9729 22.3025C12.7616 22.355 12.2075 22.8529 12.1392 22.7688C12.3667 22.6359 12.7502 22.2987 12.5869 22.3347C12.4079 22.3739 12.1112 22.7745 11.8296 22.911C12.2816 22.7774 11.5351 23.2929 11.3721 23.2516C11.0163 23.6592 11.4267 23.3913 11.8529 23.0522C11.6537 23.3371 12.0054 22.9924 12.121 23.0095C11.8824 23.2609 10.9291 23.9518 11.4445 23.722ZM8.57931 19.8188C8.381 20.1279 8.01423 20.573 7.94621 20.8298C7.90661 20.9794 8.25796 20.5225 8.10333 20.8961C8.29549 20.5941 8.31524 20.5092 8.22396 20.5218C8.26233 20.4494 8.30142 20.3762 8.33996 20.3039C8.37207 20.28 8.40458 20.2552 8.4367 20.2312C8.43687 20.1799 8.43737 20.1284 8.43699 20.0779C8.48969 20.0089 8.54297 19.9391 8.59585 19.8703C8.58964 19.8539 8.58896 19.8326 8.57931 19.8188ZM23.0653 19.5031C23.1282 19.5834 23.1904 19.6629 23.2535 19.7431C23.2599 19.7239 23.2656 19.7027 23.2714 19.6819C23.2766 19.6663 23.2817 19.6506 23.2869 19.635C23.2844 19.7115 23.5165 20.1458 23.6825 20.2763C23.766 20.3419 23.6966 20.0999 23.9754 20.4356C23.7788 20.1881 23.5902 19.9637 23.3968 19.7253C23.4354 19.7304 23.4736 19.7343 23.5122 19.7394C23.5121 19.7392 23.512 19.739 23.5119 19.7389C23.4547 19.6543 23.3969 19.5686 23.3396 19.484C23.248 19.4902 23.157 19.4969 23.0653 19.5031ZM6.80466 10.0399C7.05961 10.2825 7.15286 10.3577 7.12192 10.1743C7.12173 10.174 7.12154 10.1736 7.12135 10.1733C7.01169 10.0943 6.90199 10.0152 6.79233 9.9362C6.79627 9.9705 6.8001 10.0048 6.80466 10.0399ZM23.7262 25.2702C24.5264 25.3986 23.0227 24.6549 23.2258 24.9233C23.2349 24.9355 23.6883 25.2015 23.7262 25.2702ZM2.13556 30.5531C1.99392 30.6669 1.85187 30.7807 1.70956 30.8949L1.50498 30.7051C1.51663 30.6871 1.52828 30.6692 1.53993 30.6512C1.51277 30.6586 1.4855 30.6663 1.45822 30.6739L1.74417 30.9392C1.77833 30.9407 1.81252 30.9422 1.84647 30.944C1.94278 30.8138 2.03924 30.6833 2.13556 30.5531ZM21.8914 6.12737C21.667 6.18715 21.2146 6.49879 21.0645 6.74184C21.1825 6.66431 21.3006 6.58675 21.4186 6.50922C21.216 6.68203 21.0164 6.85391 20.8118 7.02748C20.8786 7.13625 21.0768 6.88798 21.4648 6.62916C21.525 6.58927 21.9847 6.4299 22.0369 6.23848C22.047 6.19957 21.651 6.48805 21.8754 6.22258C21.7547 6.30982 21.6543 6.38989 21.5415 6.47406C21.5149 6.45653 21.4883 6.43892 21.4609 6.42201C21.6047 6.32352 21.7476 6.22586 21.8914 6.12737ZM7.40118 21.603C7.11545 22.0188 7.12307 22.0988 7.13933 22.2359C7.26105 22.0351 7.38296 21.8343 7.50468 21.6335C7.46996 21.6238 7.43606 21.6129 7.40118 21.603ZM18.3208 8.88083C18.0942 9.03934 18.2323 9.02397 18.1533 9.10333C17.8543 9.40314 17.5964 9.53854 17.2895 9.81985C17.3025 9.7918 17.3144 9.76586 17.3269 9.73877C17.3266 9.73899 17.3263 9.73922 17.326 9.73944C15.7396 10.9011 16.6548 10.3958 17.5648 9.65053C17.6032 9.65494 17.6408 9.66005 17.6791 9.66429C18.0645 9.30291 18.4188 8.96816 18.3208 8.88083ZM18.2282 21.6748C18.2376 21.7013 18.019 21.6868 18.346 21.841C18.6693 21.8649 18.2378 21.6752 18.1737 21.5606C18.263 21.6012 18.3539 21.6433 18.4424 21.6833C17.9825 21.3282 17.8913 21.3131 18.0046 21.5251C18.013 21.5399 18.2187 21.6483 18.2282 21.6748ZM21.3683 23.8289C21.5622 23.6786 20.8937 23.3646 20.8764 23.4394C20.9592 23.4972 21.0463 23.5074 21.1263 23.5807C21.2071 23.6545 21.2005 23.715 21.3683 23.8289ZM4.96398 28.6091C4.98149 28.5967 5.21108 28.541 5.14724 28.4941C4.82623 28.5156 4.47523 28.9375 4.58791 28.9293C4.72577 28.8176 4.80229 28.7234 4.96413 28.6093C4.96408 28.6092 4.96403 28.6091 4.96398 28.6091ZM24.4794 4.03549C24.4674 4.03666 24.0203 4.33635 23.9881 4.40769C23.9683 4.47513 23.973 4.52719 23.9654 4.58698C24.1743 4.37387 24.6644 4.02883 24.4786 4.03616C24.4789 4.03594 24.4791 4.03571 24.4794 4.03549Z" fill="#D60B5D"/>
<defs>
<radialGradient id="paint0_radial_221_216" cx="0" cy="0" r="1" gradientUnits="userSpaceOnUse" gradientTransform="translate(15.6999 15.6065) rotate(132.847) scale(20.7006 20.2332)">
<stop stop-color="#DC7090"/>
<stop offset="0.620192" stop-color="#E9B9C5"/>
</radialGradient>
</defs>
</svg>
