<svg width="186" height="45" viewBox="0 0 186 45" fill="none" xmlns="http://www.w3.org/2000/svg">
<path d="M2 18C2 9.16344 9.16344 2 18 2H168C176.837 2 184 9.16344 184 18V27C184 35.8366 176.837 43 168 43H18C9.16344 43 2 35.8366 2 27V18Z" fill="#F5E0DF"/>
<path d="M3.62397 27.5598C3.75524 26.7132 3.81309 29.5187 3.95946 27.6479C3.9951 28.0326 4.04677 28.4136 4.11341 28.7921C4.02672 28.9009 3.94184 29.0139 3.85771 29.1262C3.75155 28.6129 3.6731 28.0896 3.62348 27.5599C3.62365 27.5599 3.62381 27.5599 3.62397 27.5598ZM2.36385 26.8192C2.39087 26.8702 2.416 26.9319 2.43959 27C2.66333 27.6404 2.81485 28.7875 2.98827 27.2075C2.93896 27.1397 2.8901 27.0702 2.84172 27C2.79245 26.9251 2.74318 26.8501 2.69391 26.7761C2.76966 26.135 2.84538 25.49 2.92071 24.849C2.88348 24.6184 2.8462 24.3882 2.80939 24.1577C2.97909 23.8641 3.14925 23.5731 3.31937 23.2795C3.29453 23.5402 3.26926 23.8044 3.24442 24.0651C3.36825 24.991 3.41124 25.8253 3.43731 27C3.44025 27.1217 3.44447 27.2469 3.45034 27.3761C3.48765 27.2632 3.52588 27.1506 3.56575 27.0388C3.4992 27.6832 3.47421 28.329 3.49344 28.9816C3.35034 28.4333 3.23008 27.8062 3.15911 27.2795C2.89054 28.1365 3.23151 29.6406 3.47766 30.3757C3.80795 31.3835 3.63019 31.1855 3.92635 31.9178C3.97608 32.0334 4.07281 32.0131 4.16111 32.2435C4.55991 33.4234 5.80475 35.5215 4.87411 34.411C3.88907 32.5862 3.14734 30.905 2.95226 28.8457C2.77627 29.4 2.4927 28.4387 2.37763 27C2.37307 26.9404 2.36848 26.8801 2.36385 26.8192ZM33.3599 41.7841C32.689 41.9141 31.3225 41.8617 30.3967 41.7714C30.3956 41.7714 30.3946 41.7714 30.3935 41.7714C30.1898 41.7516 29.7283 41.5789 30.3935 41.5859C31.4778 41.598 32.0021 41.8698 32.5712 41.6853C32.8259 41.7196 33.0933 41.7502 33.3599 41.7841ZM35.7165 41.768C36.3816 41.8347 36.0799 42.0395 35.2471 41.9841C35.2471 41.9842 35.2471 41.9844 35.2471 41.9846C34.8995 41.9614 35.5818 41.7995 34.3354 41.9638C34.0809 41.836 33.8302 41.7196 33.5787 41.5959C33.8838 41.5938 34.1622 41.5905 34.4823 41.5888C34.2669 41.799 35.0515 41.7019 35.7165 41.768ZM5.52393 35.2494C5.73767 35.2252 5.49822 34.8906 5.27271 34.2324C5.58579 34.7947 5.93672 35.3378 6.32009 35.8529C6.04955 35.6622 5.78522 35.4624 5.52393 35.2494ZM3.07426 19.8102C3.07426 19.8091 3.07426 19.808 3.07426 19.807C3.04446 19.5763 3.01455 19.3449 2.98516 19.1173C3.05263 18.9794 3.11982 18.8432 3.1873 18.7053C3.16905 18.4705 3.1508 18.2353 3.13254 18C3.08742 17.4567 3.07137 16.9114 3.08473 16.3662C3.23335 16.4558 3.16683 17.2817 3.23822 18C3.25746 18.226 3.28095 18.4417 3.31351 18.6239C3.25141 19.8222 3.13177 20.3996 2.95708 20.4775C2.99598 20.2559 3.03537 20.0348 3.07426 19.8102ZM179.872 37.3467C180.005 37.1069 180.129 36.8674 180.248 36.6236C180.01 36.8846 179.769 37.1392 179.51 37.3818C179.057 38.2291 178.842 38.1553 177.933 38.9563C174.979 41.1697 175.882 41.0568 172.562 41.7255C175.094 40.8494 174.032 40.9368 175.339 40.0495C175.713 40.0271 174.47 41.0908 175.463 40.6434C177.033 39.5864 178.357 38.3386 179.591 36.7152C179.532 36.7435 179.473 36.771 179.414 36.7984C179.218 37.0531 179.015 37.3001 178.802 37.5426C178.993 37.2434 179.168 36.9457 179.338 36.6331C179.178 37.0778 179.831 36.1532 179.879 36.3833C179.905 36.4888 179.673 36.9569 179.529 37.2358C180.082 36.6798 180.603 36.0613 181.071 35.414C180.903 35.797 180.718 36.1759 180.519 36.5465C180.313 36.8195 180.099 37.0832 179.876 37.3424C179.875 37.3438 179.873 37.3452 179.872 37.3467ZM38.8808 3.12187C39.9114 2.9273 41.7843 2.89511 42.7701 3.11162C41.4728 3.11493 40.1781 3.11856 38.8808 3.12187ZM2.81305 20.5558C2.84612 20.4391 2.87884 20.326 2.91192 20.2093C2.97317 20.7245 3.03401 21.2428 3.09526 21.758C2.99967 21.8568 2.90407 21.9579 2.8089 22.0598C2.81014 21.5596 2.81181 21.056 2.81305 20.5558ZM19.3851 42.0805C19.0081 42.0863 18.9748 42.0832 18.5053 42.0695C18.5059 42.0696 18.5064 42.0697 18.5069 42.0698C18.4467 42.0681 18.2425 42.0611 18 42.05C17.5198 42.0302 16.8943 41.9456 17.0069 41.9028C17.3321 41.9235 17.6612 41.9346 18 41.9347C18.4427 41.9349 18.8895 41.9353 19.326 41.9353C19.35 41.9837 19.3551 42.0317 19.3851 42.0805ZM11.0272 40.3269C11.0264 40.3263 11.0256 40.3257 11.0248 40.3251C10.7963 40.1925 10.5883 40.0504 10.3567 39.9083C11.2608 40.2941 11.3059 40.544 12.1496 40.8515C12.9994 41.1403 13.5415 41.1932 14.2035 41.6634C13.9174 41.6337 13.6071 41.6076 13.3105 41.5643C12.1287 41.0435 11.7858 40.9939 10.8051 40.6216C10.8799 40.5235 10.9533 40.4255 11.0272 40.3269ZM164.577 42.1716C164.319 42.3123 164.032 42.1742 164.002 42.1726C164.002 42.1724 164.003 42.1722 164.003 42.1721C161.721 42.3024 164.3 42.0942 162.147 42.0722C162.467 42.037 162.782 41.9999 163.1 41.9643C163.591 42.0322 164.097 42.1091 164.577 42.1716ZM90.4265 42.1584C90.4056 42.1174 90.3804 42.0763 90.3595 42.0354C91.6537 42.0449 91.9838 41.8835 93.0593 42.0305C92.1816 42.0735 91.3042 42.1162 90.4265 42.1589C90.4265 42.1587 90.4265 42.1586 90.4265 42.1584ZM25.9087 42.3786C24.4736 42.4568 23.412 42.4913 22.0338 42.3671C22.0327 42.367 22.0316 42.3668 22.0306 42.3666C21.9511 42.359 22.3355 42.2732 22.2317 42.2516C21.9474 42.2645 21.6538 42.2842 21.3664 42.2995C21.3275 42.2308 21.2904 42.1622 21.2514 42.0939C22.0603 42.1134 22.8696 42.1328 23.6815 42.1523C23.5616 42.1121 23.4389 42.0723 23.319 42.0322C24.008 42.0115 24.6945 41.9909 25.3834 41.9702C25.1438 42.0827 24.9048 42.1953 24.6681 42.3083C25.0814 42.3319 25.4954 42.3546 25.9087 42.3786ZM111.974 42.6069C111.746 42.5621 112.168 42.4872 111.814 42.4487C111.461 42.4106 110.809 42.4941 110.962 42.3679C111.438 42.3509 111.938 42.3314 112.423 42.3137C110.862 42.086 109.305 42.292 109.281 42.0109C110.779 42.0838 112.01 42.0499 113.46 41.9721C113.401 42.1952 111.95 42.3881 112.863 42.5976C112.57 42.6005 112.262 42.6047 111.977 42.6064C111.976 42.6065 111.975 42.6067 111.974 42.6069ZM10.6607 1.57666C11.5603 1.15414 13.7334 0.36448 15.0077 0.32014C15.324 0.290694 16.3821 0.586279 16.3755 0.647737C16.3607 0.830296 15.1697 0.987983 16.4617 0.970585C16.0324 1.01025 15.6171 1.07002 15.1946 1.1431C15.2907 1.25267 15.3851 1.36274 15.4747 1.47392C15.9748 1.37925 16.4827 1.30696 16.9931 1.25767C17.0206 1.29709 17.048 1.33668 17.0752 1.37623C15.256 1.52599 16.3404 1.5911 15.4369 1.85722C16.2941 1.79741 17.1565 1.8058 18 1.88048C17.5116 1.87006 16.9393 1.89201 16.5111 1.92161C16.4734 2.12932 17.4804 2.01213 17.6551 2.05624C18.1449 2.16567 17.1452 2.16744 16.0003 2.35316C14.8513 2.5234 13.5838 2.93686 13.4444 3.14549C14.1938 2.95086 14.9913 2.80529 15.7748 2.72662C15.5581 2.79593 15.338 2.87092 15.1259 2.94953C13.3453 3.06891 11.3822 3.70101 9.53065 4.73522C9.37406 4.84572 9.21982 4.95918 9.06963 5.07321C9.16952 5.11931 9.2661 5.1676 9.3647 5.21529C9.13624 5.38339 8.91025 5.55928 8.69205 5.73926C9.18637 5.00053 8.21766 5.6348 7.04497 6.48858C7.52036 5.87449 8.31566 5.34315 8.13963 5.22301C6.1193 6.93646 4.00907 9.35778 3.20027 11.8409C3.01013 12.4534 3.21401 12.5294 2.78608 13.9382C2.77103 13.8822 2.72281 13.8603 2.69464 13.8187C2.35125 15.4229 2.28686 16.6463 2.27759 18C2.2774 18.7866 2.25759 19.6186 2.21078 20.5989C2.30553 20.4432 2.40068 20.29 2.49544 20.1343C2.44824 19.562 2.4003 18.9888 2.35311 18.4195C2.4539 18.1687 2.51842 18.3183 2.55113 18C2.57043 17.8285 2.57536 17.5228 2.61301 16.937C2.73098 15.594 2.5935 16.3856 2.58597 16.0138C2.58755 15.5089 2.78472 15.0964 2.83312 14.5571C2.88021 14.14 2.62683 14.5454 2.95538 13.497C2.98927 13.9674 3.04864 14.4385 3.12695 14.8944C3.03754 15.1397 2.95399 15.386 2.87627 15.639C2.87263 15.3705 2.87553 15.1071 2.88583 14.838C2.77518 15.7709 2.74814 16.6554 2.80595 17.6114C2.67669 17.4343 2.63507 17.6637 2.63833 18C2.64112 18.2756 2.6659 18.6175 2.67853 18.8666C2.72319 19.744 2.55681 18.9923 2.58454 19.5675C2.61271 20.1427 2.79859 20.7631 2.75885 21.8027C2.65124 21.2455 2.55473 22.0035 2.4554 21.857C2.35607 21.7102 2.33407 20.6105 2.22567 21.667C2.30805 23.6983 2.68634 21.4941 2.74762 22.866C2.8213 24.5137 2.20467 24.9058 2.07212 24.4147C1.9678 24.0282 1.98878 22.6983 1.88487 22.3088C1.69735 24.6907 2.06754 24.7113 2.13998 25.1188C2.38343 26.4853 1.80218 25.7426 1.91191 27C1.92104 27.1056 1.93591 27.2249 1.95839 27.3594C1.82609 27.3292 1.70723 27.3043 1.58046 27.2725C1.61045 27.5832 1.64939 27.7845 1.69356 28.1575C1.89242 27.0486 1.91748 27.9468 1.9589 28.3982C2.02561 29.1092 2.04983 28.0001 2.10071 28.1865C2.21892 28.6845 2.2933 29.4794 2.34038 28.9802C2.31532 29.2039 2.29744 29.446 2.28412 29.6794C2.47076 30.5115 3.51915 32.1835 2.95588 30.4728C3.19045 30.59 3.23392 31.1702 3.34238 31.6102C3.45176 32.0509 3.57274 31.9992 3.68627 32.3778C4.18752 33.8706 3.59607 33.0141 3.33486 32.8347C4.32923 34.7251 3.41438 32.8735 5.00916 35.457C5.28086 35.6217 4.67296 34.3799 5.35505 35.2998C5.27106 35.6011 5.55636 36.4529 6.65189 37.7473C6.80581 37.8273 6.96043 37.9036 7.1155 37.9775C7.62087 38.7623 7.10091 38.6758 8.61967 39.5172C7.582 39.3517 8.23525 39.5306 9.42843 40.5597C9.67612 40.767 8.99277 40.4606 9.34199 40.7477C9.5022 40.8787 9.96471 41.0663 10.375 41.3545C10.5673 41.5002 11.5177 42.1916 12.3058 42.3706C11.8589 41.9345 13.3072 42.2481 12.2104 41.6121C14.3399 42.4706 16.0044 42.5926 13.387 42.3111C13.9322 42.5547 14.4974 42.7691 15.0743 42.9512C15.4984 42.9675 15.9208 42.9673 16.3442 42.9508C16.3863 43.1486 16.3143 43.2664 17.9731 43.2638C17.2522 43.3113 16.5346 43.3137 15.8041 43.2658C15.7743 43.3041 15.6677 43.3331 15.6862 43.3766C16.1721 43.405 17.1264 43.4695 18 43.4378C18.7246 43.4148 19.3912 43.3939 19.6645 43.3685C20.2577 43.3135 19.1121 43.2984 19.2829 43.245C20.7057 42.8046 20.5929 43.1294 21.6139 43.0539C22.2131 43.0091 20.7824 42.9606 21.103 42.9416C22.2916 42.8718 22.843 43.1058 23.897 43.1088C23.5226 42.9759 23.1512 42.841 22.7858 42.7069C23.8913 42.714 25.1237 42.7152 26.1514 42.6725C26.5548 42.6559 26.2499 42.5571 26.3158 42.5505C26.6427 42.5165 27.9728 42.4627 28.1136 42.4623C29.1736 42.4615 29.2038 42.5984 30.2338 42.6059C29.8295 42.6175 29.4493 42.6279 29.054 42.6391C28.8742 42.8609 28.6909 43.0828 28.5111 43.3051C29.5206 43.3212 30.5305 43.337 31.543 43.3532C30.8031 43.2791 30.0605 43.2053 29.3206 43.1312C30.477 42.952 31.6335 42.7724 32.7899 42.5927C33.3921 42.7028 33.9919 42.8129 34.5941 42.923C36.2294 42.894 35.9001 42.447 36.676 42.8385C37.1582 42.8054 37.6404 42.7723 38.1225 42.7397C38.0537 42.7955 37.9854 42.8515 37.9166 42.9074C38.4978 42.873 39.0788 42.8389 39.66 42.8041C39.0489 42.6063 38.4498 42.3981 37.8447 42.206C38.9885 42.163 39.0105 42.3308 39.1811 42.3727C39.6335 42.4837 40.5315 42.334 40.891 42.4367C41.0125 42.4719 39.8916 42.5824 40.2779 42.7099C40.3534 42.7346 41.8541 43.203 42.8117 43.0949C42.7937 43.01 42.7197 42.9059 42.6808 42.8136C43.9686 42.7621 44.6253 43.2051 44.4546 43.3292C45.1407 43.2423 46.1435 43.235 46.2843 43.0993C46.6348 43.096 46.9827 43.0928 47.3332 43.0895C46.9679 43.4202 48.43 43.3597 48.5259 43.0753C47.9236 43.0683 47.3207 43.0609 46.7185 43.0539C47.1739 42.7053 45.3439 42.4949 49.1517 42.8178C49.8798 42.9991 47.8576 42.7931 48.4508 42.9289C49.4813 43.0079 50.4488 42.9418 51.4284 43.068C52.6474 43.2257 51.1476 43.3774 53.9878 43.1767C47.7231 42.6737 54.847 42.8369 57.7892 42.6808C58.5982 43.1776 61.0829 43.3349 64.5044 43.1871C64.1479 43.0489 63.0715 43.1201 62.4512 43.0746C61.8311 43.0291 62.502 42.947 61.7296 42.8825C60.9568 42.8179 59.3155 42.7301 58.5332 42.6325C59.1958 42.5542 62.4662 42.3692 60.3038 42.5915C61.9181 42.7285 62.6762 42.8692 64.6769 42.8949C65.2761 42.6793 65.2317 42.545 67.1819 42.5387C66.0285 42.8384 68.2446 43.0467 67.7567 43.3563C66.3737 43.2842 67.1467 42.9833 66.3469 42.8393C66.2649 42.8249 64.9763 42.9003 64.6769 42.8949C65.9772 43.1652 66.4268 43.2659 65.6269 43.5875C66.5466 43.5594 67.1188 43.5998 67.2027 43.4462C67.3944 43.5128 67.5871 43.5795 67.7758 43.6461C68.0752 43.6445 68.3447 43.6383 68.6619 43.6395C68.2249 43.4078 69.072 43.5505 69.6742 43.4454C70.2764 43.3403 69.4684 43.1574 71.1223 43.1549C70.571 43.1007 70.067 43.0542 69.5337 43.0028C70.6001 42.9432 71.67 42.8832 72.7364 42.8236C71.9874 42.6821 70.3642 42.4718 70.4086 42.2856C70.8998 42.3559 72.5826 42.2323 72.7668 42.2272C73.4798 42.2082 73.0912 42.3256 73.1451 42.3285C74.2654 42.3856 75.1881 42.3456 75.6135 42.5236C76.4553 42.4433 77.0901 42.4891 77.9828 42.4845C78.4741 42.4821 78.3786 42.3513 78.6661 42.3762C80.5775 42.5417 78.7565 42.7107 82.4436 42.3891C81.9973 42.298 81.5569 42.2049 81.1105 42.113C81.5269 42.0786 81.941 42.0441 82.3574 42.0097C82.6361 42.0263 82.9122 42.043 83.1908 42.0595C83.1848 42.257 83.1777 42.4548 83.1717 42.6523C83.4773 42.663 83.7841 42.6735 84.0897 42.6842C83.5654 42.7037 83.0398 42.7231 82.5155 42.7426C82.4676 42.7773 82.4229 42.8121 82.375 42.8468C83.154 42.9007 83.9302 42.9549 84.7092 43.0092C84.7242 42.9405 84.7389 42.8713 84.7539 42.8026C86.5096 42.8983 86.5514 42.9564 88.2201 42.7672C89.5054 42.7693 90.552 42.4821 91.2951 42.3613C91.5617 42.3997 91.8286 42.4387 92.0982 42.4772C92.2689 42.4201 92.4415 42.3632 92.6123 42.3061C92.9508 42.3856 93.294 42.4651 93.6325 42.5441C93.8211 42.3637 93.9189 42.3074 92.5979 42.2441C93.0503 42.0197 95.376 42.1187 96.3227 42.194C97.041 42.2512 96.244 42.4383 96.3339 42.4611C96.6338 42.5384 97.8176 42.4717 98.0662 42.4845C99.1178 42.5379 99.8546 42.5286 100.804 42.57C100.989 42.5783 101.506 42.6969 101.55 42.7006C101.891 42.7209 102.735 42.7785 102.83 42.7802C107.776 42.8687 102.492 42.3542 107.09 42.4084C106.952 42.3405 106.826 42.2731 106.691 42.2053C107.038 42.2011 107.389 42.1972 107.737 42.1931C108.177 42.2498 107.644 42.3529 108.519 42.2697C108.462 42.3533 108.405 42.437 108.345 42.5202C108.725 42.4751 109.092 42.4303 109.482 42.3852C110.093 42.6754 112.324 42.7413 112.166 43.0819C112.112 43.1978 110.53 43.3168 111.366 43.4406C112.045 43.4649 111.585 43.3265 111.862 43.3192C113.864 43.2687 113.747 43.4628 114.565 43.411C114.694 43.3279 114.829 43.2431 114.961 43.1591C115.27 43.1835 115.579 43.2079 115.89 43.2323C115.962 43.1764 116.037 43.1205 116.109 43.0646C115.819 43.0609 115.491 43.0571 115.225 43.0534C115.596 42.8369 119.011 42.7397 117.709 42.9242C117.179 42.9991 116.208 42.9673 116.821 43.223C117.735 43.1862 118.772 43.1486 119.733 43.1117C119.763 43.1668 119.791 43.2219 119.821 43.277C121.117 43.2413 119.939 43.0212 119.941 42.9032C120.237 42.8999 120.537 42.897 120.833 42.8937C120.959 42.9471 121.079 43.0029 121.21 43.0546C121.222 42.9697 121.388 42.7724 122.272 42.8456C122.84 42.8933 121.945 43.1075 123.029 43.0778C122.948 42.9453 122.556 42.784 123.763 42.7414C123.883 42.8796 124.049 43.0062 124.142 43.1515C125.642 43.0187 126.325 43.2322 128.087 43.0778C129.204 42.9801 130.735 42.6333 131.457 43.1676C132.275 43.1817 132.015 43.0486 132.257 43.0187C133.398 42.8771 134.248 43.1305 134.46 43.1454C135.817 43.2409 136.425 43.1532 137.53 43.2728C137.471 43.1739 137.438 43.0802 137.39 42.9838C136.377 43.132 135.864 43.125 134.444 43.0932C134.921 43.0733 135.397 43.053 135.873 43.0331C135.795 42.9528 135.718 42.8725 135.643 42.7926C131.251 43.1089 132.276 42.6092 135.958 42.4999C136.275 42.6485 136.604 42.7967 136.919 42.9457C139.046 42.7205 140.047 42.916 142.453 42.9628C142.739 42.9681 143.78 42.8825 144.228 42.8783C144.221 42.8778 144.213 42.8772 144.206 42.8766C144.484 42.7363 144.107 42.6717 144.062 42.5463C144.305 42.5306 144.548 42.5149 144.79 42.4992C145.332 42.5948 145.142 42.6733 146.208 42.6506C146.064 42.5554 145.922 42.4601 145.778 42.3649C146.947 42.3616 147.712 42.465 148.799 42.4203C148.616 42.4564 148.436 42.4925 148.253 42.5285C150.62 42.6204 148.736 43.1801 150.525 42.9015C150.639 42.9503 150.75 42.9997 150.864 43.0485C150.127 43.0605 149.389 43.0721 148.655 43.0841C148.64 43.1532 148.624 43.222 148.612 43.2911C149.4 43.2704 150.192 43.2491 150.98 43.2284C150.405 43.2748 149.826 43.3212 149.251 43.3676C150.165 43.4007 151.079 43.4338 151.992 43.4669C151.022 43.2128 152.28 43.1817 152.043 42.9301C153.661 43.1395 154.932 43.4157 157.44 43.2389C157.937 43.2037 157.667 43.0278 159.078 43.2418C158.736 42.962 160.504 42.8307 160.277 42.5646C159.786 42.5774 159.276 42.5855 158.8 42.6012C159.342 42.6936 159.432 42.9475 158.609 43.0229C157.557 43.1189 156.023 42.9429 156.086 43.2247C155.667 43.2115 155.277 43.2037 154.869 43.1925C155.037 43.1226 155.201 43.0522 155.366 42.9823C154.207 43.0919 153.479 43.0563 152.922 42.88C154.302 42.8395 155.681 42.7993 157.061 42.7592C156.858 42.7472 156.652 42.7351 156.448 42.7235C157.494 42.5435 156.415 42.3729 158.366 42.3344C158.354 42.4168 158.344 42.4992 158.332 42.582C159.042 42.3617 160.987 42.3629 160.366 42.1096C160.954 42.1874 161.073 42.2366 161.406 42.1C162.955 42.2925 163.95 42.536 163.398 42.8266C163.973 42.7798 164.549 42.733 165.121 42.6862C164.789 42.6067 164.456 42.5276 164.123 42.4482C165.124 42.4531 166.132 42.458 167.13 42.4626C167.225 42.6977 165.203 42.5339 165.787 42.7441C165.904 42.7862 166.442 42.6959 166.583 42.7196C168.075 42.9767 165.733 42.791 166.173 42.9879C167.736 43.0307 167.321 43.2065 168 43.2108C168.292 43.2099 168.785 43.1873 169.687 43.0141C169.775 43.0732 169.871 43.1321 169.955 43.19C171.029 43.0479 170.916 42.9051 171.808 42.6757C172.359 42.5258 173.144 42.5703 173.683 42.1706C173.765 42.0856 172.697 42.2113 174.732 41.3506C176.27 40.5899 175.742 41.1107 176.599 40.7009C177.482 40.2887 178.928 38.6626 179.608 38.4412C179.224 38.7645 178.739 39.1762 178.287 39.4954C178.159 39.6929 178.031 39.8844 177.895 40.0763C178.857 39.24 179.868 38.3774 180.296 37.6154C181.63 36.5063 182.344 34.6739 181.833 34.9846C181.59 35.4759 182.011 35.0339 181.538 35.6394C181.439 35.6685 181.337 35.7001 181.237 35.7268C181.949 34.6597 182.311 33.835 182.235 34.4597C182.333 34.2837 182.427 34.107 182.519 33.927C182.398 33.8295 182.275 33.7362 182.154 33.6404C182.238 33.4216 182.318 33.1995 182.392 32.9777C182.522 32.7514 182.647 32.5192 182.768 32.2822C182.856 32.6892 182.707 33.3075 183.451 31.3941C183.373 31.3658 183.296 31.3351 183.219 31.307C183.726 29.6968 183.977 29.6714 184.101 27.5129C184.324 29.2025 183.59 30.0252 184.166 30.1216C184.049 30.5321 183.915 30.9396 183.767 31.3379C183.83 31.422 183.893 31.5064 183.956 31.5891C184.301 30.3363 184.403 28.5499 184.298 27C184.227 25.8121 184.211 24.7382 184.37 24.0869C184.326 23.9072 184.287 23.7268 184.24 23.5441C184.459 22.088 183.967 21.4592 184.25 19.9821C184.28 19.8297 184.742 20.1486 184.725 18.2259C184.665 18.2738 184.564 18.2987 184.488 18.3376C184.498 18.2249 184.508 18.1124 184.519 18C184.546 17.6855 184.565 17.374 184.575 17.0604C184.516 16.9856 184.455 16.9079 184.394 16.835C184.41 17.2263 184.412 17.6097 184.4 18C184.39 18.3311 184.38 18.6623 184.37 18.9938C184.359 18.6633 184.348 18.3316 184.338 18C184.329 17.7328 184.315 17.4675 184.294 17.205C184.268 17.5878 184.245 17.8683 184.217 18C184.193 18.1055 184.166 18.1137 184.12 18C184.107 17.9673 184.092 17.9247 184.075 17.8718C184.061 17.1994 184.006 16.5318 183.909 15.8663C183.863 15.8029 183.816 15.7406 183.769 15.6783C183.706 16.0116 183.635 16.3476 183.549 16.6694C183.494 14.9638 183.111 13.5228 182.833 12.2099C182.777 11.9888 183.239 12.6679 182.499 11.2973C182.559 11.2435 182.598 11.1793 182.65 11.1245C181.6 9.50592 181.331 8.96293 180.164 7.32515C180.889 8.40796 180.223 7.45685 179.942 7.26826C179.755 7.13537 180.337 7.78763 180.227 7.75066C180.123 7.70254 179.213 7.02365 179.825 7.75154C181.647 9.2929 181.635 10.1338 182.911 12.8265C182.704 12.4081 182.477 11.9982 182.234 11.6037C182.286 11.8172 182.328 12.009 182.375 12.2396C181.804 10.6884 182.062 11.4485 181.704 10.8731C181.336 10.3001 180.638 9.29509 180.115 8.6673C179.951 8.46882 180.205 8.61603 179.843 8.15737C179.599 7.83699 178.746 7.15881 178.683 6.86273C178.633 6.66121 180.177 7.66109 178.352 5.96856C178.072 5.57267 178.952 6.38875 178.973 6.40414C179.236 6.45263 178.151 5.31837 177.492 4.99471C177.441 4.96808 177.83 5.38676 177.313 5.05902C176.076 4.30445 175.399 3.82827 174.605 3.27988C174.425 3.41487 173.245 3.11209 171.811 2.68669C171.723 2.72207 171.639 2.75947 171.552 2.79665C171.783 2.82027 172.014 2.84953 172.246 2.88395C172.48 2.98554 172.727 3.08814 172.947 3.20504C171.507 2.80025 171.233 3.06166 170.535 3.02703C168.145 3.05588 169.625 2.52957 170.097 2.46164C170.406 2.55269 170.704 2.65751 171.001 2.76835C170.98 2.69544 170.958 2.62197 170.938 2.54925C167.27 2.07374 170.443 1.99036 168.535 1.72041C168.409 1.79866 168.228 1.85789 168 1.90416C167.315 2.04473 166.189 2.02357 164.846 1.8651C164.649 1.86675 164.45 1.86718 164.252 1.86925C164.219 1.91765 164.22 1.99164 164.166 2.02354C162.015 2.07984 161.632 1.56858 161.428 1.52014C160.523 1.30533 159.819 1.60255 159.552 1.6051C158.429 1.61545 158.102 1.48347 157.033 1.54016C155.882 1.60141 156.669 1.70268 156.319 1.79332C156.038 1.86531 155.131 1.87813 154.756 1.95274C154.905 1.89171 155.07 1.83187 155.219 1.77062C154.027 1.68743 153.052 1.60634 151.698 1.58606C150.171 2.03257 148.871 1.27936 149.398 1.89024C150.68 1.93205 151.397 2.00167 152.083 2.15732C151.241 2.17718 150.399 2.19653 149.557 2.2164C149.312 2.14935 149.137 2.08401 148.847 2.01572C148.218 2.1581 146.76 2.097 146.187 2.13876C143.506 2.33457 144.335 2.57742 141.887 2.16928C143.652 2.12951 143.649 1.93128 145.398 1.9586C145.021 1.81702 144.132 1.84636 144.707 1.67663C143.014 1.71843 143.562 1.86997 142.903 2.00449C142.335 2.12047 141.191 2.12696 141.255 2.27767C141.138 2.19481 141.048 2.11459 140.931 2.03184C139.835 2.03266 138.738 2.03272 137.642 2.03354C138.109 1.94704 138.577 1.86037 139.044 1.77428C138.691 1.74161 138.337 1.70906 137.984 1.67638C135.287 1.94546 130.638 1.45231 131.38 2.12827C130.08 2.14979 129.917 2.06501 129.211 1.93711C129.133 1.98843 129.057 2.03111 128.979 2.08823C128.14 2.03451 127.497 2.22717 126.757 2.17709C126.017 2.1274 125.833 1.94541 125.725 2.25131C125.246 2.16356 124.769 2.09067 124.293 2.00913C124.006 2.07863 123.719 2.14732 123.434 2.2164C122.985 2.17997 122.534 2.1437 122.085 2.10727C121.845 2.25329 120.078 2.19035 119.299 2.28841C118.56 2.13101 118.58 1.63543 116.84 1.72423C116.885 1.84715 116.929 1.96971 116.974 2.09262C116.576 2.06696 116.177 2.04138 115.775 2.01572C115.751 1.97561 115.731 1.93549 115.707 1.89537C115.91 1.90778 116.111 1.92013 116.315 1.93296C116.138 1.86507 115.965 1.7975 115.791 1.7296C115.183 1.83018 114.574 1.93077 113.963 2.03135C114.787 2.1075 115.611 2.1837 116.435 2.25985C115.401 2.3501 114.682 2.26008 113.783 2.36068C113.001 2.19098 113.29 2.0932 113.607 1.90904C113.317 1.92476 113.023 1.93994 112.732 1.95567C112.924 1.77148 112.433 1.66174 114.131 1.67663C114.014 1.6241 113.895 1.57401 113.781 1.51941C113.503 1.52769 113.322 1.48328 113.016 1.50354C112.184 1.55901 111.545 1.88252 111.602 1.99595C111.633 2.05537 112.454 1.94174 112.421 2.02573C112.34 2.23056 110.456 2.1386 113.173 2.34432C112.271 2.47472 112.07 2.37638 111.075 2.33871C111.153 2.40696 111.228 2.47478 111.303 2.54304C110.842 2.51159 110.38 2.48026 109.919 2.44881C110.56 2.09819 107.16 1.9665 110.221 1.65978C109.316 1.64406 108.415 1.62825 107.513 1.61169C107.699 1.57568 107.885 1.54004 108.07 1.50403C108.478 1.52307 108.883 1.5418 109.29 1.56042C108.811 1.49462 108.331 1.42921 107.852 1.36341C106.719 1.44496 106.275 1.57039 105.757 1.72521C107.075 1.83819 106.644 1.68386 107.671 1.65319C107.635 1.75124 107.683 1.84143 107.593 1.94444C107.062 1.74135 105.331 1.8891 104.93 1.89903C103.708 1.9292 104.666 1.72965 103.849 1.72545C103.031 1.72132 102.066 1.84008 101.398 1.64221C101.41 1.75312 101.464 1.86787 101.511 1.96885C100.238 2.00528 100.492 1.87426 100.36 1.85728C98.2571 1.57828 97.1159 1.81383 94.71 1.84239C95.0156 1.87675 95.3243 1.90776 95.6329 1.94004C93.8179 2.17553 95.0405 2.10342 96.6164 2.18124C95.1393 2.15765 94.2934 2.35819 93.2508 2.4178C92.2083 2.47731 90.4204 2.37431 89.767 2.29403C91.2621 2.16487 92.8746 2.25005 94.5344 2.21444C94.3457 2.10146 94.1623 2.00584 93.9676 1.8817C92.9581 2.11883 92.3731 1.96027 92.0406 1.92881C91.0641 1.83654 91.0947 2.04007 90.5046 1.82115C90.5286 1.89647 90.5461 1.95979 90.5701 2.03013C88.5539 1.99867 86.379 1.86552 85.0667 2.14365C84.9469 1.96276 84.8564 1.78849 84.7186 1.60388C83.8649 1.74004 83.1337 1.60061 82.4148 1.63244C81.6987 1.66432 81.9713 1.8105 81.1295 1.86681C80.9737 1.87715 80.6493 1.78566 80.2658 1.85313C79.8785 1.92097 78.4504 2.42533 78.2796 1.98472C77.5576 1.98265 76.8744 1.96654 76.1673 1.95909C76.8564 1.93425 77.5457 1.91019 78.2317 1.88536C77.6446 1.77857 77.0611 1.6721 76.4739 1.56531C76.399 1.66052 76.3239 1.75745 76.252 1.85143C74.6701 1.96733 73.5221 1.81166 71.9252 1.8485C71.6586 1.8547 72.2876 2.04295 71.1046 1.99497C69.9212 1.94696 69.043 1.5956 67.0269 1.73131C66.925 1.73835 66.328 2.00744 65.606 1.82115C65.4417 1.77893 66.1332 1.71646 65.756 1.661C65.3785 1.60553 63.6942 1.55992 63.5623 1.42786C63.5803 1.47463 63.6854 1.52308 63.7364 1.57068C63.4488 1.59302 63.1583 1.61539 62.8678 1.63732C62.8409 1.55496 62.8118 1.47247 62.7848 1.39051C61.131 1.58217 60.2764 1.89482 57.8258 1.79137C58.5148 1.911 59.2042 2.0311 59.8902 2.15073C60.079 2.06669 60.268 1.98209 60.4538 1.89805C61.5831 1.93158 62.7156 1.96486 63.8449 1.99839C64.0307 1.90276 64.2132 1.80741 64.3989 1.71178C64.6985 1.7242 64.9951 1.73623 65.2946 1.74865C65.2197 1.81778 65.1442 1.88654 65.0663 1.95567C65.6594 1.9387 66.2532 1.92137 66.8433 1.9044C65.642 2.31245 63.4884 1.86969 63.6438 2.21103C63.3773 2.15807 63.1104 2.10474 62.8439 2.05137C62.727 2.21687 62.185 2.16924 61.2297 2.14316C61.4484 2.22471 61.69 2.30515 61.8907 2.38753C60.9619 2.27246 59.3144 2.28364 58.3527 2.23935C57.9303 2.21989 58.3522 2.09989 58.2266 2.08579C57.5824 2.0121 56.3512 2.22148 56.0935 2.20492C54.5536 2.10638 53.5529 1.70943 51.8722 1.97105C53.6069 2.03563 52.6632 2.00835 53.2803 2.15366C53.4736 2.19921 55.7146 2.29425 52.9083 2.25204C52.5793 2.24676 47.4873 1.97249 49.1612 1.76232C48.3372 1.82938 47.6921 1.90692 46.9371 1.97813C45.0915 1.42424 45.7303 1.94458 46.2666 2.23104C45.964 2.23229 45.6761 2.23519 45.3645 2.23519C46.0266 1.93424 42.6533 1.91555 41.5088 2.06748C41.1253 2.11798 42.1976 2.21431 41.3108 2.25985C40.8885 2.23875 40.4095 2.21142 39.9633 2.18783C40.6104 2.37825 39.3404 2.45163 39.3582 2.64533C38.5463 2.47272 37.9253 2.10686 38.3715 1.90855C37.7005 1.98885 37.026 2.06904 36.355 2.14975C36.6666 2.1957 36.9822 2.24125 37.2938 2.28719C35.1006 2.16549 32.2807 2.44243 31.8223 2.0355C31.5317 2.0384 31.238 2.0409 30.9474 2.0438C30.8575 2.11252 30.7706 2.18137 30.6807 2.25009C29.3658 2.19049 28.0538 2.13049 26.7388 2.0709C27.9096 2.02825 28.1884 1.93044 29.4162 2.00986C28.9431 1.93083 28.4611 1.85136 27.9969 1.77233C26.1483 1.9851 25.8962 2.12495 23.1129 2.06162C22.9871 2.05872 20.8842 1.88029 20.8123 1.8629C20.4828 1.78342 20.9829 1.66796 20.8362 1.6278C20.4287 1.5152 17.9527 1.23248 18.0007 1.18984C18.6059 0.666579 26.9365 0.659644 29.1895 0.632735C52.5588 0.353735 75.4135 0.727002 98.636 0.663252C98.8747 0.662265 98.7706 0.585021 98.8723 0.581713C99.5044 0.562312 100.125 0.682698 100.359 0.687664C100.858 0.6979 100.583 0.586674 100.948 0.586595C104.717 0.587837 108.274 0.653242 112.046 0.6342C112.291 0.632958 112.041 0.721949 112.472 0.706218C112.695 0.697605 113.392 0.561076 113.895 0.559009C115.65 0.551974 117.125 0.595745 118.976 0.593675C119.989 0.592439 121.508 0.604045 122.641 0.601975C123.141 0.601096 123.662 0.538636 124.156 0.536549C124.857 0.533651 124.714 0.660269 124.822 0.668134C125.295 0.702485 125.36 0.563514 125.81 0.566821C126.646 0.573444 126.691 0.66623 127.751 0.658369C128.509 0.652573 130.244 0.579315 131.2 0.557788C133.435 0.66541 136.251 0.622684 138.337 0.587083C139.571 0.56598 139.685 0.69589 140.189 0.695477C141.962 0.69296 143.308 0.527038 144.974 0.521657C147.184 0.514647 149.143 0.624359 151.285 0.632247C151.632 0.633488 151.552 0.514457 151.893 0.511404C153.155 0.500226 154.768 0.478562 155.891 0.495535C157.143 0.514187 157.605 0.686962 158.83 0.651778C159.19 0.64133 159.295 0.48984 159.897 0.47039C160.859 0.439804 161.913 0.573393 162.584 0.588304C163.504 0.608175 162.704 0.453842 163.944 0.47454C163.995 0.475434 164.181 0.585756 164.447 0.580492C165.223 0.565589 165.146 0.478711 166.282 0.486991C166.383 0.48806 167.706 0.579985 168 0.592314C168.022 0.593175 168.039 0.593688 168.05 0.593745C169.009 0.568186 170.924 0.842121 171.477 0.95774C173.464 1.34678 171.983 0.784745 173.521 1.62579C174.262 1.78322 174.997 1.98629 175.762 2.26831C175.254 2.08701 177.127 3.20788 177.24 3.31153C178.324 3.96135 177.801 3.39744 179.066 4.40597C177.203 3.33573 180.67 5.72088 181.212 6.53249C184.048 9.76653 185.45 13.7415 185.456 18C185.456 18.2085 185.456 18.4178 185.456 18.6282C185.457 20.0213 185.525 21.8882 185.524 23.3621C185.523 23.7056 185.447 23.446 185.445 23.7485C185.444 24.0501 185.53 23.7154 185.525 24.0598C185.511 25.1237 185.463 26.0732 185.444 27C185.423 28.0239 185.351 29.0155 185.263 30.0989C185.215 30.1966 185.194 30.1894 185.13 30.3525C185.054 32.1512 183.47 35.22 182.709 36.2154C181.587 37.8323 181.322 38.2759 180.311 39.2975C178.974 40.6756 176.405 41.9543 177.695 41.6003C176.609 42.336 175.476 42.9252 174.225 43.3635C174.086 43.4118 174.145 43.2816 174.089 43.3004C173.736 43.4156 173.651 43.5383 173.412 43.6214C172.764 43.8374 173.795 43.405 172.875 43.7173C172.386 43.865 172.13 44.0558 170.719 44.2957C169.828 44.4358 168.918 44.5074 168 44.5075C160.836 44.5089 153.229 44.4851 146.004 44.4732C145.449 44.4724 145.814 44.5698 145.119 44.5635C142.704 44.542 138.382 44.3781 136.3 44.4005C134.217 44.4228 134.687 44.5652 133.384 44.6248C133.132 44.6364 133.339 44.5553 133.111 44.554C131.58 44.5466 129.755 44.42 128.515 44.401C127.694 44.3882 127.76 44.5159 127.191 44.525C126.343 44.5382 125.47 44.4092 125.018 44.4051C122.891 44.3869 121.429 44.4908 119.443 44.4378C119.521 44.4659 119.572 44.4919 119.638 44.5196C117.286 44.515 114.937 44.5105 112.585 44.5059C112.696 44.5316 112.804 44.5575 112.914 44.5836C110.155 44.5695 110.47 44.2913 110.713 44.8787C110.512 44.8994 110.299 44.9234 110.108 44.9424C110.185 44.6398 108.516 44.4184 106.392 44.3414C106.237 44.3356 105.191 44.6306 105.305 44.2821C105.032 44.3673 104.87 44.4261 104.639 44.501C104.19 44.3955 103.735 44.2912 103.285 44.1861C103.043 44.2018 102.797 44.217 102.554 44.2327C102.518 44.3011 102.546 44.372 102.468 44.439C101.342 44.4494 99.0313 44.3649 98.1412 44.3736C95.9301 44.3956 93.679 44.5802 91.9593 44.3807C91.1216 44.401 91.9535 44.5351 90.7075 44.5181C90.5668 44.4503 90.4344 44.3852 90.2876 44.3153C89.2694 44.6185 89.0566 44.434 87.6613 44.3707C86.7176 44.3276 86.0996 44.4018 85.2009 44.3873C84.9732 44.3836 85.0055 44.2945 84.8497 44.2974C84.3279 44.3066 82.8392 44.4291 82.4708 44.4324C79.1334 44.4647 76.2663 44.451 73.0877 44.4183C72.7461 44.415 73.1889 44.5028 72.8354 44.4991C72.2667 44.4932 72.6013 44.3583 72.2718 44.3516C71.3527 44.3339 71.3457 44.4763 70.0637 44.4837C65.8424 44.5081 60.989 44.4012 56.579 44.3917C56.4412 44.3917 56.4494 44.4751 56.2996 44.4759C55.3232 44.48 54.3347 44.3672 53.4481 44.3685C51.977 44.3701 50.8714 44.4873 49.4184 44.4869C46.5781 44.4865 44.0405 44.4265 41.1193 44.4232C38.7285 44.4203 36.652 44.4314 34.0305 44.431C28.7243 44.4302 23.3679 44.4866 18 44.5334C11.1481 44.6857 4.43348 40.2722 1.8715 33.9378C1.74867 33.6397 1.86868 33.7323 1.82799 33.6431C1.45295 32.7923 1.34719 32.7353 1.43867 32.358C1.05599 31.2452 0.799121 30.9128 0.586333 29.4878C0.499103 28.7259 0.783139 29.269 0.562854 27.9969C0.463095 27.3071 0.397696 27.4866 0.372552 27C0.358967 26.7028 0.370091 26.1311 0.424738 24.8554C0.42847 24.7715 0.576239 24.3585 0.537769 23.6994C0.499684 23.0373 0.393873 23.8038 0.361997 22.2098C0.336068 20.9076 0.334632 19.4849 0.342126 18C0.336828 14.9274 1.2698 11.641 2.87001 8.95689C2.97163 8.66738 4.62549 6.2832 5.04496 5.87781C5.77045 5.03353 5.51477 5.09947 6.60673 4.12935C7.47196 3.40009 8.30612 2.96498 9.44832 2.30486C9.58324 2.23298 9.7424 1.9772 10.6607 1.57666ZM181.991 33.6782C181.973 33.4012 181.771 32.8568 182.341 31.5861C182.396 31.4601 182.475 32.2545 182.763 31.517C182.568 32.2681 182.302 32.9782 181.991 33.6784C181.991 33.6784 181.991 33.6783 181.991 33.6782ZM17.7316 2.96407C16.6854 2.95895 15.6341 3.06259 14.6063 3.27486C15.2997 3.05834 16.0134 2.89151 16.7359 2.77595C17.0734 2.82766 17.4031 2.89077 17.7316 2.96407ZM97.386 42.2578C97.385 42.2578 97.3839 42.2578 97.3829 42.2578C98.5513 42.1981 99.7205 42.1384 100.889 42.0788C100.766 42.1227 100.643 42.1668 100.52 42.2106C99.5975 42.2798 98.6745 42.3488 97.7549 42.4179C97.632 42.3645 97.5089 42.3111 97.386 42.2578ZM88.1546 42.7223C87.4086 42.6702 87.5912 42.5822 87.1807 42.4965C87.1807 42.4967 87.1807 42.4968 87.1807 42.497C87.0723 42.4747 86.5678 42.4552 86.3728 42.4518C86.4447 42.5069 86.5376 42.5612 86.6155 42.6159C84.8748 42.7492 81.4706 42.2755 85.8779 42.0847C85.812 42.1542 85.749 42.2234 85.6831 42.2929C87.8733 42.2734 90.3148 42.4243 88.1546 42.7223ZM183.234 16.5814C182.794 14.8337 182.667 14.3101 182.051 12.2442C182.225 12.5004 182.394 12.7651 182.554 13.0349C182.608 13.3972 182.648 13.7549 182.675 14.1158C182.675 14.1168 182.675 14.1178 182.676 14.1188C182.761 14.1701 182.845 14.2222 182.929 14.2724C183.09 15.0345 183.192 15.8074 183.234 16.5814ZM16.6287 42.4982C16.1726 41.986 16.2912 42.3158 17.7192 42.2623C18.1891 42.2335 17.7767 42.1561 18 42.1388C18.0118 42.1378 18.0253 42.1371 18.0407 42.1364C19.7719 42.0641 19.9104 42.3687 19.524 42.5273C19.0169 42.5328 18.5072 42.5382 18 42.5434C17.5379 42.5482 17.0823 42.5329 16.6318 42.4985C16.6308 42.4984 16.6297 42.4983 16.6287 42.4982ZM6.67684 7.19351C6.67756 7.19275 6.67828 7.192 6.679 7.19125C6.78776 7.23705 6.34734 7.7465 6.94639 7.26799C6.5443 7.68148 6.16479 8.11711 5.80964 8.57507C5.90558 8.43428 6.00652 8.29253 6.10726 8.15481C5.982 8.24626 5.85712 8.33992 5.73386 8.43589C5.70882 8.67838 5.52933 8.77821 5.14696 9.25805C5.35464 9.19515 5.56167 9.13822 5.76857 9.08579C5.32784 9.62059 4.92123 10.189 4.55523 10.7839C4.52095 10.7751 4.48651 10.7666 4.45219 10.758C4.36618 11.0114 4.28832 11.2651 4.21646 11.5206C4.14907 11.5675 4.08329 11.613 4.01629 11.6614C3.91257 11.965 3.81895 12.2704 3.73558 12.578C3.6125 12.6353 3.80426 11.9556 3.41109 13.1401C3.43525 12.7453 3.47587 12.3473 3.53366 11.9459C4.27933 10.1859 5.35232 8.56744 6.67684 7.19351ZM30.13 42.4179C27.982 42.4369 28.5869 42.365 29.0843 42.1398C29.4317 42.2325 29.7826 42.3252 30.13 42.4179ZM140.802 42.6183C141.425 42.4647 142.051 42.3127 142.689 42.1645C143.959 42.0788 145.23 42.3587 144.274 42.4684C143.124 42.6001 141.922 42.4527 140.802 42.6183ZM169.684 42.4599C168.176 42.5149 169.579 42.2284 169.89 42.0735C170.315 42.1907 170.89 42.0998 171.79 41.8948C170.957 42.1268 169.939 42.4495 169.684 42.4603C169.684 42.4602 169.684 42.46 169.684 42.4599ZM115.79 42.4457C115.167 42.4503 114.547 42.4932 113.99 42.4411C114.159 42.2942 115.273 42.4278 114.476 42.2101C114.874 42.2064 115.273 42.2028 115.668 42.1987C115.417 42.2889 115.755 42.3563 115.788 42.4452C115.789 42.4454 115.789 42.4456 115.79 42.4457ZM50.9431 42.2448C52.1655 42.4187 52.3971 42.3443 53.6285 42.2238C53.802 42.3654 52.3338 42.6025 51.4141 42.6547C51.2583 42.5181 51.1018 42.3814 50.9431 42.2448ZM55.1883 2.68268C55.4818 2.50224 57.6472 2.47871 58.7231 2.53206C58.595 2.55882 58.4664 2.58594 58.3383 2.61311C57.2897 2.63629 56.2369 2.6595 55.1883 2.68268ZM172.219 41.7921C172.069 41.8294 171.925 41.8637 171.79 41.8948C171.939 41.8551 172.084 41.819 172.219 41.7921ZM157.74 1.83897C158.252 1.66885 156.73 1.6117 158.578 1.67834C158.578 1.67818 158.578 1.67801 158.578 1.67785C159.8 1.72173 160.07 1.73345 161.203 1.74669C160.795 1.96524 158.498 2.04335 161.664 2.08847C161.706 2.08867 161.623 1.95863 162.129 1.97642C162.285 1.98195 162.785 2.08867 163.545 2.11972C163.791 2.12966 165.637 2.16257 163.12 2.16464C163.195 2.31698 163.06 2.47118 163.066 2.61896C162.084 2.66192 161.329 2.36361 160.29 2.37093C158.747 2.38252 157.961 2.68417 157.665 2.28841C158.962 2.19118 161.19 2.18884 161.481 2.42684C162.736 2.42973 163.096 2.23475 162.084 2.13828C157.749 2.26081 160.894 1.84884 157.098 2.00449C157.053 2.05953 156.897 2.11877 156.921 2.1705C155.762 1.97681 157.557 1.89982 157.74 1.83897ZM166.805 2.25985C166.056 2.37618 165.31 2.49344 164.564 2.61018C164.564 2.42058 164.975 2.25045 166.155 2.14365C166.371 2.18253 166.59 2.22138 166.805 2.25985ZM103.798 2.30965C103.69 2.41273 103.402 2.50719 103.193 2.60529C102.965 2.51836 97.5719 2.43497 100.316 2.34969C100.714 2.33727 103.145 2.51954 103.798 2.30965ZM42.4557 42.4001C43.0908 42.4692 43.7234 42.5385 44.3556 42.6076C43.3825 42.6514 42.4086 42.6964 41.4354 42.7411C41.7764 42.6275 42.1146 42.5137 42.4557 42.4001ZM151.141 42.7992C150.873 42.7954 151.764 42.6536 150.707 42.6759C151.495 42.5853 152.233 42.5085 153.003 42.4233C153.234 42.4903 153.467 42.5571 153.697 42.6242C153.877 42.5811 154.061 42.5383 154.24 42.4953C154.132 42.593 154.036 42.6884 153.923 42.7878C152.625 42.5783 152.328 42.8158 151.141 42.7992ZM112.566 43.1813C112.333 42.969 114.212 42.8427 112.364 42.8087C112.714 42.6693 113.278 42.5961 114.359 42.5837C114.533 42.637 114.706 42.69 114.88 42.7433C114.904 42.6006 115.182 42.5475 115.79 42.4457C115.79 42.4459 115.791 42.4461 115.791 42.4462C117.436 42.4359 117.337 42.4835 117.733 42.7182C115.992 42.5857 115.94 42.8001 114.754 42.9276C113.939 43.0153 112.875 42.9756 112.566 43.1813ZM109.544 2.30721C108.313 2.48645 109.418 2.65362 107.234 2.46321C107.374 2.41767 107.516 2.37252 107.657 2.32699C108.286 2.31995 108.915 2.31342 109.544 2.30721ZM106.491 42.4535C106.632 42.7822 107.791 43.0381 107.989 42.5033C106.859 42.3945 107.411 42.6974 106.491 42.4535ZM169.21 43.0197C168.643 43.0572 168.255 43.0321 168 42.9904C167.413 42.8919 167.566 42.7152 168 42.5788C168.097 42.5476 168.208 42.5175 168.327 42.4895C168.462 42.5542 168.598 42.6172 168.733 42.6782C169.106 42.6303 169.472 42.5697 169.839 42.4963C169.635 42.6748 169.427 42.8496 169.21 43.0197ZM68.2005 42.8146C69.8604 42.5799 66.4088 42.6841 67.5683 42.5375C68.4941 42.4204 69.7141 42.6569 69.2527 42.8051C68.9321 42.8092 68.5752 42.8121 68.2037 42.8146C68.2026 42.8146 68.2016 42.8146 68.2005 42.8146ZM77.8056 42.7475C77.533 42.4967 77.9259 42.5698 76.6145 42.6149C76.24 42.6277 73.2641 42.5336 74.5134 42.7414C75.5768 42.7414 76.7003 42.745 77.8056 42.7475ZM183.698 25.8224C183.753 25.8124 183.841 26.3882 183.907 27C183.975 27.6025 183.971 28.2437 183.927 28.3863C183.928 28.3863 183.928 28.3863 183.928 28.3863C183.712 29.1537 183.836 26.7739 183.556 27.792C183.596 27.5056 183.616 27.2412 183.622 27C183.669 25.3277 183.377 24.8176 183.925 24.9587C183.953 26.3264 183.823 25.6789 183.698 25.8224ZM26.7563 2.16855C26.7553 2.16855 26.7542 2.16855 26.7531 2.16855C26.907 2.17368 28.175 2.33397 28.0208 2.38948C26.496 2.34188 26.7677 2.23638 25.3482 2.40975C25.2703 2.35391 25.2037 2.29975 25.1198 2.2435C25.6831 2.21038 25.9953 2.1433 26.7563 2.16855ZM97.9671 2.08945C98.5273 2.06089 99.5498 2.17925 100.188 2.17221C98.1566 2.62674 95.7292 2.20289 97.9671 2.08945ZM2.36336 26.8144C2.36353 26.816 2.36369 26.8176 2.36385 26.8192C2.3636 26.8187 2.36337 26.818 2.36312 26.8176C2.3632 26.8165 2.36328 26.8154 2.36336 26.8144ZM141.383 2.36214C141.311 2.33264 141.27 2.30701 141.255 2.28451C141.255 2.28239 141.255 2.28028 141.255 2.27816C141.294 2.30579 141.336 2.33373 141.383 2.36214ZM183.665 21.0598C183.817 20.1054 184.059 23.2854 184.001 24.3136C183.932 24.2418 183.869 24.2306 183.789 24.063C183.969 23.233 183.639 21.2186 183.665 21.0598ZM126.573 42.7206C129.087 42.7248 125.815 43.3261 125.681 42.8463C125.686 42.837 126.508 42.7214 126.573 42.7206ZM178.17 38.9977C177.792 39.5321 178.843 38.8015 177.189 40.0102C177.064 40.0406 176.94 40.0692 176.815 40.0962C177.288 39.7547 177.74 39.3876 178.17 38.9977ZM143.04 43.5101C146.204 43.4087 149.23 43.2298 147.169 42.7277C146.93 42.7438 146.687 42.7594 146.447 42.7755C146.411 43.0205 145.528 42.8868 144.235 42.8788C144.05 42.9761 143.333 42.9986 143.198 43.0812C142.938 43.2409 143.762 43.3533 143.04 43.5101ZM9.81237 40.8789C9.87778 40.869 9.94211 40.8579 10.0069 40.8476C10.4636 41.0572 10.929 41.2449 11.3987 41.4085C11.2925 41.4481 11.1853 41.4865 11.0775 41.5239C10.6468 41.3279 10.2271 41.1141 9.81502 40.8807C9.81414 40.8801 9.81326 40.8795 9.81237 40.8789ZM169.915 1.85465C169.579 2.30223 170.576 2.2128 172.612 2.55545C171.74 2.24573 170.834 2.01031 169.915 1.85465ZM92.2019 43.3236C92.136 43.1929 92.0712 43.0625 92.0024 42.9318C90.9208 43.068 91.1216 43.2177 91.6399 43.3908C91.8285 43.3684 92.0134 43.3459 92.2019 43.3236ZM76.6225 43.3793C77.0712 43.4066 76.8422 43.301 76.8891 43.3031C78.0246 43.3586 78.1846 43.407 79.5778 43.3275C79.7485 43.2998 79.9163 43.2706 80.0871 43.2421C79.443 42.9681 78.9754 43.1174 77.6124 42.9564C77.858 43.0504 78.1027 43.1445 78.3484 43.2389C77.5906 43.219 76.8359 43.1994 76.0781 43.1796C75.9882 43.2086 75.8981 43.2373 75.8082 43.2662C76.0778 43.3035 76.356 43.3453 76.6225 43.3793ZM5.52594 37.0089C5.07265 36.4276 4.65892 35.8134 4.29085 35.1765C4.21915 35.188 4.14748 35.2004 4.07554 35.2113C4.51699 35.8469 5.00332 36.449 5.52594 37.0089ZM154.756 1.95274C154.697 1.97667 154.64 2.00075 154.59 2.02524C154.595 1.9954 154.659 1.9721 154.756 1.95274ZM24.8117 1.79845C23.9759 1.75126 22.7716 1.78225 21.8548 1.77233C21.9269 1.9416 24.2569 1.89481 25.0751 1.99741C25.2066 1.96704 25.165 1.81831 24.8117 1.79845ZM166.2 43.0497C165.991 43.1341 165.781 43.2182 165.574 43.3026C165.068 43.2935 164.561 43.2839 164.051 43.2748C164.036 43.3439 164.022 43.4137 164.007 43.4828C166.25 43.393 165.733 43.5923 166.844 43.7889C166.628 43.5427 166.416 43.2964 166.2 43.0497ZM1.98689 14.302C1.68179 15.9445 1.77215 16.5328 2.08153 15.6457C2.11795 15.0689 2.1865 14.4887 2.28585 13.9159C2.18442 14.0433 2.08454 14.1728 1.98689 14.302ZM125.237 1.7965C123.88 1.87399 123.858 1.59566 122.532 1.75109C123.242 1.80241 123.952 1.8543 124.659 1.90562C124.85 1.86933 125.046 1.83279 125.237 1.7965ZM184.906 16.5447C184.944 15.9197 184.394 14.8805 184.245 13.1693C184.032 12.8103 183.859 12.6003 183.649 12.3124C183.683 12.0878 183.703 11.8344 183.729 11.6145C183.728 11.6135 183.728 11.6124 183.727 11.6114C183.08 10.2051 183.355 11.1849 183.238 11.1955C183.197 11.1968 182.77 10.1494 182.834 10.5122C182.99 11.1132 183.86 13.1885 183.624 13.2672C183.485 12.487 182.818 11.1006 182.863 11.5757C182.922 12.0768 183.662 13.334 183.73 14.2624C183.759 12.8998 184.287 15.5892 184.006 15.9297C184.354 17.4831 184.386 16.0172 184.02 14.4058C184.428 15.3485 184.019 13.9216 184.103 13.6423C184.584 14.6148 184.767 18.2552 184.906 16.5447ZM129.864 43.5926C130.943 43.5795 132.628 43.6959 133.367 43.524C133.797 43.4239 132.107 43.3464 133.272 43.1891C132.221 43.2044 131.981 43.2659 132.161 43.4037C131.922 43.4202 131.679 43.4364 131.44 43.4525C131.329 43.4256 131.215 43.3991 131.104 43.3722C130.978 43.4289 130.852 43.4852 130.729 43.5419C130.475 43.5307 130.217 43.5195 129.963 43.5079C129.933 43.5364 129.882 43.5613 129.864 43.5926ZM86.2913 1.80504C86.5908 1.80339 86.8874 1.80174 87.187 1.79967C87.1539 1.7661 87.1147 1.73115 87.0768 1.69665C87.0496 1.66939 87.0225 1.64213 86.9954 1.61486C87.169 1.71226 88.5959 1.87414 89.197 1.77013C89.4993 1.71795 88.8116 1.5327 90.0927 1.50037C89.1642 1.5099 88.3041 1.53518 87.4025 1.5509C87.4834 1.49584 87.5611 1.4402 87.642 1.38514C87.6414 1.38506 87.6409 1.38498 87.6404 1.3849C87.3409 1.37248 87.0378 1.35947 86.7383 1.34706C86.5885 1.49981 86.4411 1.65229 86.2913 1.80504ZM93.0801 43.5821C94.1017 43.4741 94.4438 43.418 93.9614 43.2433C93.9603 43.2432 93.9592 43.2431 93.9582 43.2431C93.5777 43.3204 93.1971 43.3978 92.8166 43.4752C92.9035 43.5108 92.9902 43.5465 93.0801 43.5821ZM145.956 1.37611C143.783 2.03968 148.675 1.6329 147.744 1.40687C147.702 1.39652 146.159 1.44938 145.956 1.37611ZM169.629 43.1882C169.09 43.2465 168.548 43.2779 168 43.2826C167.937 43.2832 167.874 43.2837 167.811 43.2843C167.874 43.3213 167.937 43.3582 168 43.395C168.079 43.4396 168.158 43.4835 168.236 43.527C168.708 43.4339 169.175 43.3202 169.629 43.1882ZM1.26771 21.4259C1.08556 22.0534 1.01957 23.6642 1.21767 24.4514C1.24085 24.038 1.26406 23.6243 1.28724 23.2109C1.31 23.9925 1.33506 24.7654 1.35658 25.5531C1.61034 25.595 1.46312 24.6873 1.53308 23.3211C1.54436 23.1095 1.85936 21.7572 1.62194 21.2902C1.57315 21.1963 1.53997 22.6349 1.39808 21.6351C1.38691 22.0723 1.38939 22.4496 1.38319 22.8628C1.32275 22.8928 1.26224 22.9225 1.2018 22.9554C1.22368 22.4444 1.24583 21.9369 1.26771 21.4259ZM136.145 43.5729C137.627 43.5869 137.81 43.4855 138.118 43.3063C137.429 43.3266 136.74 43.3465 136.05 43.3668C136.083 43.4354 136.112 43.5039 136.145 43.5729ZM3.09996 34.747C3.47669 35.5115 3.43407 35.1182 3.62572 35.4C4.37044 36.4453 4.80649 37.2126 5.69735 38.1161C5.62027 38.0728 5.5493 38.0327 5.47525 37.9898C5.47598 37.9906 5.47671 37.9914 5.47744 37.9923C7.47796 40.2479 8.24879 40.4674 7.86148 40.1595C7.51062 39.8186 6.24738 38.7087 5.11968 37.3269C5.10974 37.2278 5.10287 37.1316 5.09455 37.0333C4.03925 35.8503 3.29839 34.5643 3.09996 34.747ZM165.253 1.3534C165.187 1.31946 165.748 1.10374 164.696 1.20473C163.863 1.51969 165.229 1.36336 165.571 1.4845C165.286 1.51472 164.995 1.54412 164.714 1.57434C166.416 1.66334 166.664 1.58845 166.044 1.35829C165.999 1.34282 165.319 1.38724 165.253 1.3534ZM154.069 1.19814C153.836 1.6622 155.983 1.45352 155.905 1.30946C155.609 1.30372 155.378 1.38229 155.064 1.34754C154.746 1.31278 154.665 1.20438 154.069 1.19814ZM179.119 39.4448C179.17 39.4065 179.787 39.0939 179.633 39.0277C178.815 39.3498 177.68 40.504 177.973 40.4337C178.406 40.1012 178.654 39.8322 179.119 39.4451C179.119 39.445 179.119 39.4449 179.119 39.4448ZM2.4629 11.49C2.42215 11.5039 1.77826 13.0474 1.80939 13.2808C1.83895 13.4733 1.90075 13.5807 1.94897 13.7291C2.07564 12.8248 2.83558 11.1472 2.4616 11.4931C2.46204 11.4921 2.46247 11.491 2.4629 11.49Z" fill="#303030"/>
</svg>
